<svg width="18" height="18" viewBox="0 0 18 18" fill="none" xmlns="http://www.w3.org/2000/svg">
    <path d="M4.04175 6.698C2.5755 6.698 1.3855 5.508 1.3855 4.04175C1.3855 2.5755 2.5755 1.3855 4.04175 1.3855C5.508 1.3855 6.698 2.5755 6.698 4.04175C6.698 5.508 5.508 6.698 4.04175 6.698ZM4.04175 2.448C3.16341 2.448 2.448 3.16341 2.448 4.04175C2.448 4.92008 3.16341 5.6355 4.04175 5.6355C4.92008 5.6355 5.6355 4.92008 5.6355 4.04175C5.6355 3.16341 4.92008 2.448 4.04175 2.448Z" fill="#718096"/>
    <path d="M13.9583 11.6562C12.492 11.6562 11.302 10.4662 11.302 9C11.302 7.53375 12.492 6.34375 13.9583 6.34375C15.4245 6.34375 16.6145 7.53375 16.6145 9C16.6145 10.4662 15.4245 11.6562 13.9583 11.6562ZM13.9583 7.40625C13.0799 7.40625 12.3645 8.12167 12.3645 9C12.3645 9.87833 13.0799 10.5937 13.9583 10.5937C14.8366 10.5937 15.552 9.87833 15.552 9C15.552 8.12167 14.8366 7.40625 13.9583 7.40625Z" fill="#718096"/>
    <path d="M4.04175 16.6145C2.5755 16.6145 1.3855 15.4245 1.3855 13.9583C1.3855 12.492 2.5755 11.302 4.04175 11.302C5.508 11.302 6.698 12.492 6.698 13.9583C6.698 15.4245 5.508 16.6145 4.04175 16.6145ZM4.04175 12.3645C3.16341 12.3645 2.448 13.0799 2.448 13.9583C2.448 14.8366 3.16341 15.552 4.04175 15.552C4.92008 15.552 5.6355 14.8366 5.6355 13.9583C5.6355 13.0799 4.92008 12.3645 4.04175 12.3645Z" fill="#718096"/>
    <path d="M4.04175 12.3647C3.75133 12.3647 3.5105 12.1238 3.5105 11.8334V6.16675C3.5105 5.87633 3.75133 5.6355 4.04175 5.6355C4.33216 5.6355 4.573 5.87633 4.573 6.16675C4.573 7.718 5.32383 8.46883 6.87508 8.46883H11.8334C12.1238 8.46883 12.3647 8.70966 12.3647 9.00008C12.3647 9.2905 12.1238 9.53133 11.8334 9.53133H6.87508C5.91175 9.53133 5.13966 9.28341 4.573 8.81591V11.8334C4.573 12.1238 4.33216 12.3647 4.04175 12.3647Z" fill="#718096"/>
    </svg>
    