<svg width="17" height="18" viewBox="0 0 17 18" fill="none" xmlns="http://www.w3.org/2000/svg">
    <path d="M11.0429 9.71549C8.74793 9.71549 6.87793 7.8455 6.87793 5.5505C6.87793 3.2555 8.74793 1.3855 11.0429 1.3855C13.3379 1.3855 15.2079 3.2555 15.2079 5.5505C15.2079 7.8455 13.3379 9.71549 11.0429 9.71549ZM11.0429 2.448C9.33585 2.448 7.94043 3.83633 7.94043 5.5505C7.94043 7.26467 9.32877 8.65299 11.0429 8.65299C12.7571 8.65299 14.1454 7.26467 14.1454 5.5505C14.1454 3.83633 12.75 2.448 11.0429 2.448Z" fill="#718096"/>
    <path d="M4.50514 14.8013C3.01056 14.8013 1.79224 13.583 1.79224 12.0884C1.79224 10.5938 3.01056 9.37549 4.50514 9.37549C5.99973 9.37549 7.21807 10.5938 7.21807 12.0884C7.21807 13.583 5.99973 14.8013 4.50514 14.8013ZM4.50514 10.438C3.59848 10.438 2.85474 11.1747 2.85474 12.0884C2.85474 12.9951 3.59139 13.7388 4.50514 13.7388C5.41181 13.7388 6.15557 13.0022 6.15557 12.0884C6.15557 11.1817 5.41181 10.438 4.50514 10.438Z" fill="#718096"/>
    <path d="M11.7726 16.6147C10.4763 16.6147 9.42798 15.5593 9.42798 14.2701C9.42798 12.9739 10.4834 11.9255 11.7726 11.9255C13.0617 11.9255 14.1171 12.981 14.1171 14.2701C14.1171 15.5593 13.0617 16.6147 11.7726 16.6147ZM11.7726 12.9809C11.0642 12.9809 10.4905 13.5547 10.4905 14.263C10.4905 14.9714 11.0642 15.5451 11.7726 15.5451C12.4809 15.5451 13.0546 14.9714 13.0546 14.263C13.0546 13.5618 12.4809 12.9809 11.7726 12.9809Z" fill="#718096"/>
    </svg>
    