<svg width="1743" height="1079" viewBox="0 0 1743 1079" fill="none" xmlns="http://www.w3.org/2000/svg">
    <g opacity="0.7">
    <g clip-path="url(#clip0_1074_14909)">
    <rect width="201.463" height="201.463" transform="translate(0.555725 -33.875)" fill="#EEF2F6"/>
    <path d="M101.287 66.8567L202.019 -33.875V167.588L101.287 66.8567Z" fill="#EEF2F6"/>
    <path d="M101.287 66.8564L202.019 167.588L0.55569 167.588L101.287 66.8564Z" fill="#EEF2F6"/>
    <path d="M101.287 66.8567L0.555719 -33.875V167.588L101.287 66.8567Z" fill="#EEF2F6"/>
    <path d="M101.287 66.8564L202.019 -33.8753L0.555699 -33.8753L101.287 66.8564Z" fill="#EEF2F6"/>
    <path fill-rule="evenodd" clip-rule="evenodd" d="M202.019 -33.875H101.287C101.287 21.7576 56.1883 66.8567 0.555725 66.8567V167.588C111.821 167.588 202.019 77.3902 202.019 -33.875Z" fill="#F5F8FA"/>
    </g>
    <rect width="201.463" height="201.463" transform="translate(202.019 -33.875)" fill="#EEF2F6"/>
    <rect x="262.458" y="26.5645" width="80.5854" height="80.5854" fill="#F5F8FA"/>
    <g clip-path="url(#clip1_1074_14909)">
    <rect width="201.463" height="201.463" transform="translate(403.483 -33.875)" fill="#F5F8FA"/>
    <path d="M504.215 66.8567L604.946 -33.875V167.588L504.215 66.8567Z" fill="#EEF2F6"/>
    <path d="M504.215 66.8564L604.946 167.588L403.483 167.588L504.215 66.8564Z" fill="#EEF2F6"/>
    <path d="M504.215 66.8567L403.483 -33.875V167.588L504.215 66.8567Z" fill="#EEF2F6"/>
    <path d="M504.215 66.8564L604.946 -33.8753L403.483 -33.8753L504.215 66.8564Z" fill="#EEF2F6"/>
    <rect x="443.775" y="167.588" width="201.463" height="40.2927" transform="rotate(-90 443.775 167.588)" fill="#F5F8FA"/>
    <rect x="524.361" y="167.588" width="201.463" height="40.2927" transform="rotate(-90 524.361 167.588)" fill="#F5F8FA"/>
    </g>
    <g clip-path="url(#clip2_1074_14909)">
    <rect width="201.463" height="201.463" transform="translate(604.946 -33.875)" fill="#EEF2F6"/>
    <path fill-rule="evenodd" clip-rule="evenodd" d="M705.678 -33.875C650.045 -33.875 604.946 11.2241 604.946 66.8567C604.946 122.489 650.045 167.588 705.678 167.588C761.31 167.588 806.41 122.489 806.41 66.8567C806.41 11.2241 761.31 -33.875 705.678 -33.875ZM705.678 3.54287L642.364 66.8567L705.678 130.171L768.992 66.8567L705.678 3.54287Z" fill="#F5F8FA"/>
    </g>
    <g clip-path="url(#clip3_1074_14909)">
    <rect width="201.463" height="201.463" transform="translate(806.409 -33.875)" fill="#F5F8FA"/>
    <path d="M806.409 167.588C806.409 56.3233 896.608 -33.875 1007.87 -33.875V-33.875V167.588H806.409V167.588Z" fill="#EEF2F6"/>
    </g>
    <g clip-path="url(#clip4_1074_14909)">
    <rect width="201.463" height="201.463" transform="translate(1007.87 -33.875)" fill="#F5F8FA"/>
    <path d="M1007.87 167.588C1007.87 56.3233 1098.07 -33.875 1209.34 -33.875V-33.875V167.588H1007.87V167.588Z" fill="#EEF2F6"/>
    </g>
    <g clip-path="url(#clip5_1074_14909)">
    <rect width="201.463" height="201.463" transform="translate(1209.34 -33.875)" fill="#F5F8FA"/>
    <path d="M1310.07 66.8567L1410.8 -33.875V167.588L1310.07 66.8567Z" fill="#EEF2F6"/>
    <path d="M1310.07 66.8564L1410.8 167.588L1209.34 167.588L1310.07 66.8564Z" fill="#EEF2F6"/>
    <path d="M1310.07 66.8567L1209.34 -33.875V167.588L1310.07 66.8567Z" fill="#EEF2F6"/>
    <path d="M1310.07 66.8564L1410.8 -33.8753L1209.34 -33.8753L1310.07 66.8564Z" fill="#EEF2F6"/>
    <rect x="1310.07" y="-33.875" width="100.732" height="100.732" fill="#F5F8FA"/>
    </g>
    <g clip-path="url(#clip6_1074_14909)">
    <rect width="201.463" height="201.463" transform="translate(1410.8 -33.875)" fill="#F5F8FA"/>
    <path d="M1511.53 66.8567L1612.26 -33.875V167.588L1511.53 66.8567Z" fill="#EEF2F6"/>
    <path d="M1511.53 66.8564L1612.26 167.588L1410.8 167.588L1511.53 66.8564Z" fill="#EEF2F6"/>
    <path d="M1511.53 66.8567L1410.8 -33.875V167.588L1511.53 66.8567Z" fill="#EEF2F6"/>
    <path d="M1511.53 66.8564L1612.26 -33.8753L1410.8 -33.8753L1511.53 66.8564Z" fill="#EEF2F6"/>
    <rect x="1410.8" y="-33.875" width="100.732" height="100.732" fill="#F5F8FA"/>
    </g>
    <g clip-path="url(#clip7_1074_14909)">
    <rect width="201.463" height="201.463" transform="translate(1612.26 -33.875)" fill="#F5F8FA"/>
    <path d="M1713 66.8567L1813.73 -33.875V167.588L1713 66.8567Z" fill="#F5F8FA"/>
    <path d="M1713 66.8564L1813.73 167.588L1612.26 167.588L1713 66.8564Z" fill="#F5F8FA"/>
    <path d="M1713 66.8567L1612.26 -33.875V167.588L1713 66.8567Z" fill="#F5F8FA"/>
    <path d="M1713 66.8564L1813.73 -33.8753L1612.26 -33.8753L1713 66.8564Z" fill="#F5F8FA"/>
    <path d="M1612.26 -33.875H1813.73V167.588V167.588C1702.46 167.588 1612.26 77.3902 1612.26 -33.875V-33.875Z" fill="#EEF2F6"/>
    <path d="M1713 -33.875H1813.73V66.8567V66.8567C1758.09 66.8567 1713 21.7576 1713 -33.875V-33.875Z" fill="#EEF2F6"/>
    </g>
    <g clip-path="url(#clip8_1074_14909)">
    <rect width="201.463" height="201.463" transform="translate(0.555725 167.588)" fill="#EEF2F6"/>
    <path d="M101.287 268.32L202.019 167.588V369.051L101.287 268.32Z" fill="#EEF2F6"/>
    <path d="M101.287 268.319L202.019 369.051L0.55569 369.051L101.287 268.319Z" fill="#EEF2F6"/>
    <path d="M101.287 268.32L0.555719 167.588V369.051L101.287 268.32Z" fill="#EEF2F6"/>
    <path d="M101.287 268.319L202.019 167.588L0.555699 167.588L101.287 268.319Z" fill="#EEF2F6"/>
    <path d="M0.555725 167.588V167.588C111.821 167.588 202.019 257.786 202.019 369.051V369.051H0.555725V167.588Z" fill="#F5F8FA"/>
    <path d="M0.555725 268.319V268.319C56.1883 268.319 101.287 313.418 101.287 369.051V369.051H0.555725V268.319Z" fill="#EEF2F6"/>
    </g>
    <g clip-path="url(#clip9_1074_14909)">
    <rect width="201.463" height="201.463" transform="translate(0.555725 369.052)" fill="#EEF2F6"/>
    <rect x="0.555725" y="409.344" width="201.463" height="40.2927" fill="#F5F8FA"/>
    <rect x="0.555725" y="489.929" width="201.463" height="40.2927" fill="#F5F8FA"/>
    </g>
    <rect width="201.463" height="201.463" transform="translate(0.555725 570.516)" fill="#F5F8FA"/>
    <rect x="60.9948" y="630.955" width="80.5854" height="80.5854" rx="40.2927" fill="#EEF2F6"/>
    <rect width="201.463" height="201.463" transform="translate(0.555725 771.979)" fill="#F5F8FA"/>
    <rect x="40.8484" y="812.271" width="40.2927" height="40.2927" fill="#EEF2F6"/>
    <rect x="40.8484" y="892.855" width="40.2927" height="40.2927" fill="#EEF2F6"/>
    <rect x="121.434" y="812.271" width="40.2927" height="40.2927" fill="#EEF2F6"/>
    <rect x="121.434" y="892.855" width="40.2927" height="40.2927" fill="#EEF2F6"/>
    <g clip-path="url(#clip10_1074_14909)">
    <rect width="201.463" height="201.463" transform="translate(0.555725 973.443)" fill="#F5F8FA"/>
    <path d="M101.287 1074.18L202.019 973.443V1174.91L101.287 1074.18Z" fill="#F5F8FA"/>
    <path d="M101.287 1074.17L202.019 1174.91L0.55569 1174.91L101.287 1074.17Z" fill="#F5F8FA"/>
    <path d="M101.287 1074.18L0.555719 973.443V1174.91L101.287 1074.18Z" fill="#F5F8FA"/>
    <path d="M101.287 1074.17L202.019 973.443L0.555699 973.443L101.287 1074.17Z" fill="#F5F8FA"/>
    <path d="M0.555725 1074.17V1074.17C56.1883 1074.17 101.287 1119.27 101.287 1174.91V1174.91H0.555725V1074.17Z" fill="#EEF2F6"/>
    </g>
    <g clip-path="url(#clip11_1074_14909)">
    <rect width="201.463" height="201.463" transform="translate(202.019 167.588)" fill="#EEF2F6"/>
    <rect x="302.751" y="268.319" width="100.732" height="100.732" fill="#F5F8FA"/>
    </g>
    <g clip-path="url(#clip12_1074_14909)">
    <rect width="201.463" height="201.463" transform="translate(202.019 369.052)" fill="#EEF2F6"/>
    <path d="M302.751 469.783L403.483 369.052V570.515L302.751 469.783Z" fill="#EEF2F6"/>
    <path d="M302.751 469.783L403.483 570.515L202.019 570.515L302.751 469.783Z" fill="#EEF2F6"/>
    <path d="M302.751 469.783L202.019 369.052V570.515L302.751 469.783Z" fill="#EEF2F6"/>
    <path d="M302.751 469.783L403.483 369.051L202.019 369.051L302.751 469.783Z" fill="#EEF2F6"/>
    <rect x="302.751" y="369.052" width="100.732" height="100.732" fill="#F5F8FA"/>
    </g>
    <g clip-path="url(#clip13_1074_14909)">
    <rect width="201.463" height="201.463" transform="translate(202.019 570.516)" fill="#EEF2F6"/>
    <path fill-rule="evenodd" clip-rule="evenodd" d="M302.751 570.516H202.019V671.247V771.979H302.672C247.076 771.936 202.019 726.854 202.019 671.247C202.019 615.615 247.118 570.516 302.751 570.516ZM403.483 671.168C403.44 615.572 358.357 570.516 302.751 570.516H403.483V671.168ZM403.483 671.327C403.44 726.896 358.4 771.936 302.83 771.979H403.483V671.327Z" fill="#F5F8FA"/>
    </g>
    <g clip-path="url(#clip14_1074_14909)">
    <rect width="201.463" height="201.463" transform="translate(202.019 771.979)" fill="#F5F8FA"/>
    <path d="M302.751 872.71L403.483 771.979V973.442L302.751 872.71Z" fill="#F5F8FA"/>
    <path d="M302.751 872.71L403.483 973.442L202.019 973.442L302.751 872.71Z" fill="#F5F8FA"/>
    <path d="M302.751 872.71L202.019 771.979V973.442L302.751 872.71Z" fill="#F5F8FA"/>
    <path d="M302.751 872.71L403.483 771.978L202.019 771.978L302.751 872.71Z" fill="#F5F8FA"/>
    <path d="M202.019 872.71V872.71C257.652 872.71 302.751 917.809 302.751 973.442V973.442H202.019V872.71Z" fill="#EEF2F6"/>
    </g>
    <g clip-path="url(#clip15_1074_14909)">
    <rect width="201.463" height="201.463" transform="translate(202.019 973.443)" fill="#F5F8FA"/>
    <path d="M302.751 1074.18L403.483 973.443V1174.91L302.751 1074.18Z" fill="#F5F8FA"/>
    <path d="M302.751 1074.17L403.483 1174.91L202.019 1174.91L302.751 1074.17Z" fill="#F5F8FA"/>
    <path d="M302.751 1074.18L202.019 973.443V1174.91L302.751 1074.18Z" fill="#F5F8FA"/>
    <path d="M302.751 1074.17L403.483 973.443L202.019 973.443L302.751 1074.17Z" fill="#F5F8FA"/>
    <path d="M302.751 973.443H403.483V1074.18V1074.18C347.85 1074.18 302.751 1029.08 302.751 973.443V973.443Z" fill="#EEF2F6"/>
    </g>
    <g clip-path="url(#clip16_1074_14909)">
    <rect width="201.463" height="201.463" transform="translate(403.483 167.588)" fill="#EEF2F6"/>
    <path d="M504.215 268.32L604.946 167.588V369.051L504.215 268.32Z" fill="#EEF2F6"/>
    <path d="M504.215 268.319L604.946 369.051L403.483 369.051L504.215 268.319Z" fill="#EEF2F6"/>
    <path d="M504.215 268.32L403.483 167.588V369.051L504.215 268.32Z" fill="#EEF2F6"/>
    <path d="M504.215 268.319L604.946 167.588L403.483 167.588L504.215 268.319Z" fill="#EEF2F6"/>
    <rect x="403.483" y="268.319" width="100.732" height="100.732" fill="#F5F8FA"/>
    </g>
    <g clip-path="url(#clip17_1074_14909)">
    <rect width="201.463" height="201.463" transform="translate(403.483 369.052)" fill="#F5F8FA"/>
    <path d="M504.215 469.783L604.946 369.052V570.515L504.215 469.783Z" fill="#F5F8FA"/>
    <path d="M504.215 469.783L604.946 570.515L403.483 570.515L504.215 469.783Z" fill="#F5F8FA"/>
    <path d="M504.215 469.783L403.483 369.052V570.515L504.215 469.783Z" fill="#F5F8FA"/>
    <path d="M504.215 469.783L604.946 369.051L403.483 369.051L504.215 469.783Z" fill="#F5F8FA"/>
    <rect x="403.483" y="369.052" width="100.732" height="100.732" fill="#EEF2F6"/>
    </g>
    <g clip-path="url(#clip18_1074_14909)">
    <rect width="201.463" height="201.463" transform="translate(403.483 570.516)" fill="#F5F8FA"/>
    <path d="M504.215 771.979C504.215 716.346 549.314 671.247 604.946 671.247V671.247V771.979H504.215V771.979Z" fill="#EEF2F6"/>
    </g>
    <g clip-path="url(#clip19_1074_14909)">
    <rect width="201.463" height="201.463" transform="translate(403.483 771.979)" fill="#F5F8FA"/>
    <path d="M504.215 872.71L604.946 771.979V973.442L504.215 872.71Z" fill="#F5F8FA"/>
    <path d="M504.215 872.71L604.946 973.442L403.483 973.442L504.215 872.71Z" fill="#F5F8FA"/>
    <path d="M504.215 872.71L403.483 771.979V973.442L504.215 872.71Z" fill="#F5F8FA"/>
    <path d="M504.215 872.71L604.946 771.978L403.483 771.978L504.215 872.71Z" fill="#F5F8FA"/>
    <path fill-rule="evenodd" clip-rule="evenodd" d="M504.215 771.979H403.483C403.483 883.244 493.681 973.442 604.946 973.442V872.71C549.314 872.71 504.215 827.611 504.215 771.979Z" fill="#EEF2F6"/>
    </g>
    <g clip-path="url(#clip20_1074_14909)">
    <rect width="201.463" height="201.463" transform="translate(403.483 973.443)" fill="#F5F8FA"/>
    <rect x="504.215" y="1074.17" width="100.732" height="100.732" fill="#EEF2F6"/>
    </g>
    <g clip-path="url(#clip21_1074_14909)">
    <rect width="201.463" height="201.463" transform="translate(604.946 167.588)" fill="#EEF2F6"/>
    <path fill-rule="evenodd" clip-rule="evenodd" d="M705.678 167.588H604.946V369.051H705.678V167.588Z" fill="#F5F8FA"/>
    </g>
    <g clip-path="url(#clip22_1074_14909)">
    <rect width="201.463" height="201.463" transform="translate(604.946 369.052)" fill="#F5F8FA"/>
    <path d="M705.678 469.783L806.41 369.052V570.515L705.678 469.783Z" fill="#F5F8FA"/>
    <path d="M705.678 469.783L806.41 570.515L604.946 570.515L705.678 469.783Z" fill="#F5F8FA"/>
    <path d="M705.678 469.783L604.946 369.052V570.515L705.678 469.783Z" fill="#F5F8FA"/>
    <path d="M705.678 469.783L806.41 369.051L604.946 369.051L705.678 469.783Z" fill="#F5F8FA"/>
    <rect x="604.946" y="469.783" width="100.732" height="100.732" fill="#EEF2F6"/>
    </g>
    <rect width="201.463" height="201.463" transform="translate(604.946 570.516)" fill="#F5F8FA"/>
    <rect x="648.695" y="671.247" width="80.5854" height="80.5854" transform="rotate(-45 648.695 671.247)" fill="#EEF2F6"/>
    <g clip-path="url(#clip23_1074_14909)">
    <rect width="201.463" height="201.463" transform="translate(604.946 771.979)" fill="#F5F8FA"/>
    <path d="M705.678 872.71L806.41 771.979V973.442L705.678 872.71Z" fill="#F5F8FA"/>
    <path d="M705.678 872.71L806.41 973.442L604.946 973.442L705.678 872.71Z" fill="#F5F8FA"/>
    <path d="M705.678 872.71L604.946 771.979V973.442L705.678 872.71Z" fill="#F5F8FA"/>
    <path d="M705.678 872.71L806.41 771.978L604.946 771.978L705.678 872.71Z" fill="#F5F8FA"/>
    <path d="M604.946 771.979H705.678V771.979C705.678 827.611 660.579 872.71 604.946 872.71V872.71V771.979Z" fill="#EEF2F6"/>
    </g>
    <rect width="201.463" height="201.463" transform="translate(604.946 973.443)" fill="#F5F8FA"/>
    <rect x="645.239" y="1013.74" width="40.2927" height="40.2927" rx="20.1463" fill="#EEF2F6"/>
    <rect x="725.824" y="1013.74" width="40.2927" height="40.2927" rx="20.1463" fill="#EEF2F6"/>
    <g clip-path="url(#clip24_1074_14909)">
    <rect width="201.463" height="201.463" transform="translate(806.409 167.588)" fill="#F5F8FA"/>
    <path fill-rule="evenodd" clip-rule="evenodd" d="M907.141 167.588H806.409V268.32V369.051H907.062C851.466 369.009 806.409 323.926 806.409 268.32C806.409 212.687 851.509 167.588 907.141 167.588ZM1007.87 268.24C1007.83 212.644 962.747 167.588 907.141 167.588H1007.87V268.24ZM1007.87 268.399C1007.83 323.969 962.79 369.009 907.22 369.051H1007.87V268.399Z" fill="#EEF2F6"/>
    </g>
    <g clip-path="url(#clip25_1074_14909)">
    <rect width="201.463" height="201.463" transform="translate(806.409 369.052)" fill="#F5F8FA"/>
    <rect x="806.409" y="409.344" width="201.463" height="40.2927" fill="#EEF2F6"/>
    <rect x="806.409" y="489.929" width="201.463" height="40.2927" fill="#EEF2F6"/>
    </g>
    <rect width="201.463" height="201.463" transform="translate(806.409 570.516)" fill="#F5F8FA"/>
    <rect x="866.849" y="630.955" width="80.5854" height="80.5854" fill="#EEF2F6"/>
    <g clip-path="url(#clip26_1074_14909)">
    <rect width="201.463" height="201.463" transform="translate(806.409 771.979)" fill="#F5F8FA"/>
    <path d="M907.141 872.71L1007.87 771.979V973.442L907.141 872.71Z" fill="#F5F8FA"/>
    <path d="M907.141 872.71L1007.87 973.442L806.409 973.442L907.141 872.71Z" fill="#F5F8FA"/>
    <path d="M907.141 872.71L806.409 771.979V973.442L907.141 872.71Z" fill="#F5F8FA"/>
    <path d="M907.141 872.71L1007.87 771.978L806.409 771.978L907.141 872.71Z" fill="#F5F8FA"/>
    <rect x="806.409" y="872.71" width="100.732" height="100.732" fill="#EEF2F6"/>
    </g>
    <g clip-path="url(#clip27_1074_14909)">
    <rect width="201.463" height="201.463" transform="translate(806.409 973.443)" fill="#F5F8FA"/>
    <path d="M907.141 1174.91C907.141 1119.27 952.24 1074.17 1007.87 1074.17V1074.17V1174.91H907.141V1174.91Z" fill="#EEF2F6"/>
    </g>
    <g clip-path="url(#clip28_1074_14909)">
    <rect width="201.463" height="201.463" transform="translate(1007.87 167.588)" fill="#F5F8FA"/>
    <path d="M1108.6 369.051C1108.6 313.418 1153.7 268.319 1209.34 268.319V268.319V369.051H1108.6V369.051Z" fill="#EEF2F6"/>
    <path fill-rule="evenodd" clip-rule="evenodd" d="M1209.34 167.588H1007.87V369.051C1007.87 257.786 1098.07 167.588 1209.34 167.588Z" fill="#EEF2F6"/>
    </g>
    <g clip-path="url(#clip29_1074_14909)">
    <rect width="201.463" height="201.463" transform="translate(1007.87 369.052)" fill="#F5F8FA"/>
    <path d="M1108.6 469.783L1209.34 369.052V570.515L1108.6 469.783Z" fill="#F5F8FA"/>
    <path d="M1108.6 469.783L1209.34 570.515L1007.87 570.515L1108.6 469.783Z" fill="#F5F8FA"/>
    <path d="M1108.6 469.783L1007.87 369.052V570.515L1108.6 469.783Z" fill="#F5F8FA"/>
    <path d="M1108.6 469.783L1209.34 369.051L1007.87 369.051L1108.6 469.783Z" fill="#F5F8FA"/>
    <path d="M1108.6 369.052H1209.34V469.783V469.783C1153.7 469.783 1108.6 424.684 1108.6 369.052V369.052Z" fill="#EEF2F6"/>
    </g>
    <rect width="201.463" height="201.463" transform="translate(1007.87 570.516)" fill="#F5F8FA"/>
    <rect x="1048.17" y="610.808" width="40.2927" height="40.2927" rx="20.1463" fill="#EEF2F6"/>
    <rect x="1048.17" y="691.393" width="40.2927" height="40.2927" rx="20.1463" fill="#EEF2F6"/>
    <rect x="1128.75" y="610.808" width="40.2927" height="40.2927" rx="20.1463" fill="#EEF2F6"/>
    <rect x="1128.75" y="691.393" width="40.2927" height="40.2927" rx="20.1463" fill="#EEF2F6"/>
    <g clip-path="url(#clip30_1074_14909)">
    <rect width="201.463" height="201.463" transform="translate(1007.87 771.979)" fill="#F5F8FA"/>
    <path d="M1108.6 973.442C1108.6 917.809 1153.7 872.71 1209.34 872.71V872.71V973.442H1108.6V973.442Z" fill="#EEF2F6"/>
    </g>
    <g clip-path="url(#clip31_1074_14909)">
    <rect width="201.463" height="201.463" transform="translate(1007.87 973.443)" fill="#F5F8FA"/>
    <path d="M1108.6 1074.18L1209.34 973.443V1174.91L1108.6 1074.18Z" fill="#F5F8FA"/>
    <path d="M1108.6 1074.17L1209.34 1174.91L1007.87 1174.91L1108.6 1074.17Z" fill="#F5F8FA"/>
    <path d="M1108.6 1074.18L1007.87 973.443V1174.91L1108.6 1074.18Z" fill="#F5F8FA"/>
    <path d="M1108.6 1074.17L1209.34 973.443L1007.87 973.443L1108.6 1074.17Z" fill="#F5F8FA"/>
    <path fill-rule="evenodd" clip-rule="evenodd" d="M1108.6 973.443H1007.87C1007.87 1084.71 1098.07 1174.91 1209.34 1174.91V1074.18C1153.7 1074.18 1108.6 1029.08 1108.6 973.443Z" fill="#EEF2F6"/>
    </g>
    <g clip-path="url(#clip32_1074_14909)">
    <rect width="201.463" height="201.463" transform="translate(1209.34 167.588)" fill="#EEF2F6"/>
    <rect x="1209.34" y="167.588" width="201.463" height="201.463" fill="#EEF2F6"/>
    <g clip-path="url(#clip33_1074_14909)">
    <rect x="1276.49" y="234.743" width="67.1545" height="67.1545" fill="#F5F8FA"/>
    <rect x="1209.34" y="234.743" width="67.1545" height="67.1545" fill="#F5F8FA"/>
    <rect x="1343.65" y="234.743" width="67.1545" height="67.1545" fill="#F5F8FA"/>
    <rect x="1276.49" y="167.588" width="67.1545" height="67.1545" fill="#F5F8FA"/>
    <rect x="1276.49" y="301.896" width="67.1545" height="67.1545" fill="#F5F8FA"/>
    </g>
    </g>
    <g clip-path="url(#clip34_1074_14909)">
    <rect width="201.463" height="201.463" transform="translate(1209.34 369.052)" fill="#F5F8FA"/>
    <path d="M1310.07 469.783L1410.8 369.052V570.515L1310.07 469.783Z" fill="#F5F8FA"/>
    <path d="M1310.07 469.783L1410.8 570.515L1209.34 570.515L1310.07 469.783Z" fill="#F5F8FA"/>
    <path d="M1310.07 469.783L1209.34 369.052V570.515L1310.07 469.783Z" fill="#F5F8FA"/>
    <path d="M1310.07 469.783L1410.8 369.051L1209.34 369.051L1310.07 469.783Z" fill="#F5F8FA"/>
    <path d="M1209.34 369.052H1410.8V369.052C1410.8 480.317 1320.6 570.515 1209.34 570.515V570.515V369.052Z" fill="#EEF2F6"/>
    <path d="M1209.34 369.052H1310.07V369.052C1310.07 424.684 1264.97 469.783 1209.34 469.783V469.783V369.052Z" fill="#EEF2F6"/>
    </g>
    <g clip-path="url(#clip35_1074_14909)">
    <rect width="201.463" height="201.463" transform="translate(1209.34 570.516)" fill="#EEF2F6"/>
    <path d="M1310.07 671.247L1410.8 570.516V771.979L1310.07 671.247Z" fill="#F5F8FA"/>
    <path d="M1310.07 671.247L1410.8 771.979L1209.34 771.979L1310.07 671.247Z" fill="#F5F8FA"/>
    <path d="M1310.07 671.247L1209.34 570.516V771.979L1310.07 671.247Z" fill="#F5F8FA"/>
    <path d="M1310.07 671.247L1410.8 570.515L1209.34 570.515L1310.07 671.247Z" fill="#F5F8FA"/>
    <rect x="1209.34" y="671.247" width="100.732" height="100.732" fill="#EEF2F6"/>
    </g>
    <g clip-path="url(#clip36_1074_14909)">
    <rect width="201.463" height="201.463" transform="translate(1209.34 771.979)" fill="#F5F8FA"/>
    <path d="M1310.07 872.71L1410.8 771.979V973.442L1310.07 872.71Z" fill="#F5F8FA"/>
    <path d="M1310.07 872.71L1410.8 973.442L1209.34 973.442L1310.07 872.71Z" fill="#F5F8FA"/>
    <path d="M1310.07 872.71L1209.34 771.979V973.442L1310.07 872.71Z" fill="#F5F8FA"/>
    <path d="M1310.07 872.71L1410.8 771.978L1209.34 771.978L1310.07 872.71Z" fill="#F5F8FA"/>
    <path d="M1209.34 771.979H1310.07V771.979C1310.07 827.611 1264.97 872.71 1209.34 872.71V872.71V771.979Z" fill="#EEF2F6"/>
    </g>
    <g clip-path="url(#clip37_1074_14909)">
    <rect width="201.463" height="201.463" transform="translate(1209.34 973.443)" fill="#F5F8FA"/>
    <path d="M1310.07 1074.18L1410.8 973.443V1174.91L1310.07 1074.18Z" fill="#F5F8FA"/>
    <path d="M1310.07 1074.17L1410.8 1174.91L1209.34 1174.91L1310.07 1074.17Z" fill="#F5F8FA"/>
    <path d="M1310.07 1074.18L1209.34 973.443V1174.91L1310.07 1074.18Z" fill="#F5F8FA"/>
    <path d="M1310.07 1074.17L1410.8 973.443L1209.34 973.443L1310.07 1074.17Z" fill="#F5F8FA"/>
    <path d="M1209.34 1074.17V1074.17C1264.97 1074.17 1310.07 1119.27 1310.07 1174.91V1174.91H1209.34V1074.17Z" fill="#EEF2F6"/>
    </g>
    <rect width="201.463" height="201.463" transform="translate(1410.8 167.588)" fill="#EEF2F6"/>
    <rect x="1451.09" y="207.88" width="40.2927" height="40.2927" rx="20.1463" fill="#F5F8FA"/>
    <rect x="1451.09" y="288.465" width="40.2927" height="40.2927" rx="20.1463" fill="#F5F8FA"/>
    <rect x="1531.68" y="207.88" width="40.2927" height="40.2927" rx="20.1463" fill="#F5F8FA"/>
    <rect x="1531.68" y="288.465" width="40.2927" height="40.2927" rx="20.1463" fill="#F5F8FA"/>
    <g clip-path="url(#clip38_1074_14909)">
    <rect width="201.463" height="201.463" transform="translate(1410.8 369.052)" fill="#EEF2F6"/>
    <path fill-rule="evenodd" clip-rule="evenodd" d="M1511.53 369.052C1455.9 369.052 1410.8 414.151 1410.8 469.783C1410.8 525.416 1455.9 570.515 1511.53 570.515C1567.16 570.515 1612.26 525.416 1612.26 469.783C1612.26 414.151 1567.16 369.052 1511.53 369.052ZM1511.53 406.47L1448.22 469.783L1511.53 533.097L1574.85 469.783L1511.53 406.47Z" fill="#F5F8FA"/>
    </g>
    <rect width="201.463" height="201.463" transform="translate(1410.8 570.516)" fill="#F5F8FA"/>
    <rect x="1471.24" y="630.955" width="80.5854" height="80.5854" rx="40.2927" fill="#EEF2F6"/>
    <rect width="201.463" height="201.463" transform="translate(1410.8 771.979)" fill="#F5F8FA"/>
    <rect x="1451.09" y="812.271" width="40.2927" height="40.2927" fill="#EEF2F6"/>
    <rect x="1451.09" y="892.855" width="40.2927" height="40.2927" fill="#EEF2F6"/>
    <rect x="1531.68" y="812.271" width="40.2927" height="40.2927" fill="#EEF2F6"/>
    <rect x="1531.68" y="892.855" width="40.2927" height="40.2927" fill="#EEF2F6"/>
    <g clip-path="url(#clip39_1074_14909)">
    <rect width="201.463" height="201.463" transform="translate(1410.8 973.443)" fill="#F5F8FA"/>
    <path fill-rule="evenodd" clip-rule="evenodd" d="M1511.53 973.443H1410.8V1074.18V1174.91H1511.45C1455.86 1174.86 1410.8 1129.78 1410.8 1074.18C1410.8 1018.54 1455.9 973.443 1511.53 973.443ZM1612.26 1074.1C1612.22 1018.5 1567.14 973.443 1511.53 973.443H1612.26V1074.1ZM1612.26 1074.25C1612.22 1129.82 1567.18 1174.86 1511.61 1174.91H1612.26V1074.25Z" fill="#EEF2F6"/>
    </g>
    <rect width="201.463" height="201.463" transform="translate(1612.26 167.588)" fill="#EEF2F6"/>
    <rect x="1672.7" y="228.027" width="80.5854" height="80.5854" fill="#F5F8FA"/>
    <g clip-path="url(#clip40_1074_14909)">
    <rect width="201.463" height="201.463" transform="translate(1612.26 369.052)" fill="#F5F8FA"/>
    <path d="M1713 570.515C1713 514.882 1758.09 469.783 1813.73 469.783V469.783V570.515H1713V570.515Z" fill="#EEF2F6"/>
    <path fill-rule="evenodd" clip-rule="evenodd" d="M1813.73 369.052H1612.26V570.515C1612.26 459.25 1702.46 369.052 1813.73 369.052Z" fill="#EEF2F6"/>
    </g>
    <g clip-path="url(#clip41_1074_14909)">
    <rect width="201.463" height="201.463" transform="translate(1612.26 570.516)" fill="#F5F8FA"/>
    <path d="M1713 671.247L1813.73 570.516V771.979L1713 671.247Z" fill="#F5F8FA"/>
    <path d="M1713 671.247L1813.73 771.979L1612.26 771.979L1713 671.247Z" fill="#F5F8FA"/>
    <path d="M1713 671.247L1612.26 570.516V771.979L1713 671.247Z" fill="#F5F8FA"/>
    <path d="M1713 671.247L1813.73 570.515L1612.26 570.515L1713 671.247Z" fill="#F5F8FA"/>
    <path d="M1713 570.516H1813.73V671.247V671.247C1758.09 671.247 1713 626.148 1713 570.516V570.516Z" fill="#EEF2F6"/>
    </g>
    <g clip-path="url(#clip42_1074_14909)">
    <rect width="201.463" height="201.463" transform="translate(1612.26 771.979)" fill="#EEF2F6"/>
    <rect x="1612.26" y="812.271" width="201.463" height="40.2927" fill="#F5F8FA"/>
    <rect x="1612.26" y="892.855" width="201.463" height="40.2927" fill="#F5F8FA"/>
    </g>
    <g clip-path="url(#clip43_1074_14909)">
    <rect width="201.463" height="201.463" transform="translate(1612.26 973.443)" fill="#F5F8FA"/>
    <path d="M1713 1074.18L1813.73 973.443V1174.91L1713 1074.18Z" fill="#F5F8FA"/>
    <path d="M1713 1074.17L1813.73 1174.91L1612.26 1174.91L1713 1074.17Z" fill="#F5F8FA"/>
    <path d="M1713 1074.18L1612.26 973.443V1174.91L1713 1074.18Z" fill="#F5F8FA"/>
    <path d="M1713 1074.17L1813.73 973.443L1612.26 973.443L1713 1074.17Z" fill="#F5F8FA"/>
    <rect x="1713" y="1074.17" width="100.732" height="100.732" fill="#EEF2F6"/>
    </g>
    </g>
    <defs>
    <clipPath id="clip0_1074_14909">
    <rect width="201.463" height="201.463" fill="white" transform="translate(0.555725 -33.875)"/>
    </clipPath>
    <clipPath id="clip1_1074_14909">
    <rect width="201.463" height="201.463" fill="white" transform="translate(403.483 -33.875)"/>
    </clipPath>
    <clipPath id="clip2_1074_14909">
    <rect width="201.463" height="201.463" fill="white" transform="translate(604.946 -33.875)"/>
    </clipPath>
    <clipPath id="clip3_1074_14909">
    <rect width="201.463" height="201.463" fill="white" transform="translate(806.409 -33.875)"/>
    </clipPath>
    <clipPath id="clip4_1074_14909">
    <rect width="201.463" height="201.463" fill="white" transform="translate(1007.87 -33.875)"/>
    </clipPath>
    <clipPath id="clip5_1074_14909">
    <rect width="201.463" height="201.463" fill="white" transform="translate(1209.34 -33.875)"/>
    </clipPath>
    <clipPath id="clip6_1074_14909">
    <rect width="201.463" height="201.463" fill="white" transform="translate(1410.8 -33.875)"/>
    </clipPath>
    <clipPath id="clip7_1074_14909">
    <rect width="201.463" height="201.463" fill="white" transform="translate(1612.26 -33.875)"/>
    </clipPath>
    <clipPath id="clip8_1074_14909">
    <rect width="201.463" height="201.463" fill="white" transform="translate(0.555725 167.588)"/>
    </clipPath>
    <clipPath id="clip9_1074_14909">
    <rect width="201.463" height="201.463" fill="white" transform="translate(0.555725 369.052)"/>
    </clipPath>
    <clipPath id="clip10_1074_14909">
    <rect width="201.463" height="201.463" fill="white" transform="translate(0.555725 973.443)"/>
    </clipPath>
    <clipPath id="clip11_1074_14909">
    <rect width="201.463" height="201.463" fill="white" transform="translate(202.019 167.588)"/>
    </clipPath>
    <clipPath id="clip12_1074_14909">
    <rect width="201.463" height="201.463" fill="white" transform="translate(202.019 369.052)"/>
    </clipPath>
    <clipPath id="clip13_1074_14909">
    <rect width="201.463" height="201.463" fill="white" transform="translate(202.019 570.516)"/>
    </clipPath>
    <clipPath id="clip14_1074_14909">
    <rect width="201.463" height="201.463" fill="white" transform="translate(202.019 771.979)"/>
    </clipPath>
    <clipPath id="clip15_1074_14909">
    <rect width="201.463" height="201.463" fill="white" transform="translate(202.019 973.443)"/>
    </clipPath>
    <clipPath id="clip16_1074_14909">
    <rect width="201.463" height="201.463" fill="white" transform="translate(403.483 167.588)"/>
    </clipPath>
    <clipPath id="clip17_1074_14909">
    <rect width="201.463" height="201.463" fill="white" transform="translate(403.483 369.052)"/>
    </clipPath>
    <clipPath id="clip18_1074_14909">
    <rect width="201.463" height="201.463" fill="white" transform="translate(403.483 570.516)"/>
    </clipPath>
    <clipPath id="clip19_1074_14909">
    <rect width="201.463" height="201.463" fill="white" transform="translate(403.483 771.979)"/>
    </clipPath>
    <clipPath id="clip20_1074_14909">
    <rect width="201.463" height="201.463" fill="white" transform="translate(403.483 973.443)"/>
    </clipPath>
    <clipPath id="clip21_1074_14909">
    <rect width="201.463" height="201.463" fill="white" transform="translate(604.946 167.588)"/>
    </clipPath>
    <clipPath id="clip22_1074_14909">
    <rect width="201.463" height="201.463" fill="white" transform="translate(604.946 369.052)"/>
    </clipPath>
    <clipPath id="clip23_1074_14909">
    <rect width="201.463" height="201.463" fill="white" transform="translate(604.946 771.979)"/>
    </clipPath>
    <clipPath id="clip24_1074_14909">
    <rect width="201.463" height="201.463" fill="white" transform="translate(806.409 167.588)"/>
    </clipPath>
    <clipPath id="clip25_1074_14909">
    <rect width="201.463" height="201.463" fill="white" transform="translate(806.409 369.052)"/>
    </clipPath>
    <clipPath id="clip26_1074_14909">
    <rect width="201.463" height="201.463" fill="white" transform="translate(806.409 771.979)"/>
    </clipPath>
    <clipPath id="clip27_1074_14909">
    <rect width="201.463" height="201.463" fill="white" transform="translate(806.409 973.443)"/>
    </clipPath>
    <clipPath id="clip28_1074_14909">
    <rect width="201.463" height="201.463" fill="white" transform="translate(1007.87 167.588)"/>
    </clipPath>
    <clipPath id="clip29_1074_14909">
    <rect width="201.463" height="201.463" fill="white" transform="translate(1007.87 369.052)"/>
    </clipPath>
    <clipPath id="clip30_1074_14909">
    <rect width="201.463" height="201.463" fill="white" transform="translate(1007.87 771.979)"/>
    </clipPath>
    <clipPath id="clip31_1074_14909">
    <rect width="201.463" height="201.463" fill="white" transform="translate(1007.87 973.443)"/>
    </clipPath>
    <clipPath id="clip32_1074_14909">
    <rect width="201.463" height="201.463" fill="white" transform="translate(1209.34 167.588)"/>
    </clipPath>
    <clipPath id="clip33_1074_14909">
    <rect width="201.463" height="201.463" fill="white" transform="translate(1209.34 167.588)"/>
    </clipPath>
    <clipPath id="clip34_1074_14909">
    <rect width="201.463" height="201.463" fill="white" transform="translate(1209.34 369.052)"/>
    </clipPath>
    <clipPath id="clip35_1074_14909">
    <rect width="201.463" height="201.463" fill="white" transform="translate(1209.34 570.516)"/>
    </clipPath>
    <clipPath id="clip36_1074_14909">
    <rect width="201.463" height="201.463" fill="white" transform="translate(1209.34 771.979)"/>
    </clipPath>
    <clipPath id="clip37_1074_14909">
    <rect width="201.463" height="201.463" fill="white" transform="translate(1209.34 973.443)"/>
    </clipPath>
    <clipPath id="clip38_1074_14909">
    <rect width="201.463" height="201.463" fill="white" transform="translate(1410.8 369.052)"/>
    </clipPath>
    <clipPath id="clip39_1074_14909">
    <rect width="201.463" height="201.463" fill="white" transform="translate(1410.8 973.443)"/>
    </clipPath>
    <clipPath id="clip40_1074_14909">
    <rect width="201.463" height="201.463" fill="white" transform="translate(1612.26 369.052)"/>
    </clipPath>
    <clipPath id="clip41_1074_14909">
    <rect width="201.463" height="201.463" fill="white" transform="translate(1612.26 570.516)"/>
    </clipPath>
    <clipPath id="clip42_1074_14909">
    <rect width="201.463" height="201.463" fill="white" transform="translate(1612.26 771.979)"/>
    </clipPath>
    <clipPath id="clip43_1074_14909">
    <rect width="201.463" height="201.463" fill="white" transform="translate(1612.26 973.443)"/>
    </clipPath>
    </defs>
    </svg>
    