<svg width="804" height="1023" viewBox="0 0 804 1023" fill="none" xmlns="http://www.w3.org/2000/svg">
<g filter="url(#filter0_dd_305_4033)">
<g clip-path="url(#clip0_305_4033)">
<rect x="12" y="2" width="780" height="999" rx="28" fill="white"/>
<g clip-path="url(#clip1_305_4033)">
<path d="M1022.37 -289.012H-202.824V1408.1H1022.37V-289.012Z" fill="#46235C"/>
<path opacity="0.04" d="M1076.1 -81.8153C1074.82 -80.9197 1073.9 -79.4984 1073.9 -77.8045C1073.9 -76.1106 1074.8 -74.6894 1076.1 -73.7937L1029.82 6.36354C1029.18 6.05202 1028.48 5.85731 1027.72 5.85731C1025.15 5.85731 1023.09 7.82376 1022.83 10.3548H930.233C929.961 7.84323 927.916 5.85731 925.346 5.85731C924.646 5.85731 923.984 5.99364 923.38 6.26622L877.081 -73.9106C878.269 -74.8256 879.067 -76.1885 879.067 -77.785C879.067 -79.3816 878.249 -80.7445 877.061 -81.6596L923.38 -161.875C924.003 -161.603 924.685 -161.447 925.385 -161.447C927.955 -161.447 930.019 -163.433 930.272 -165.944H1022.89C1023.14 -163.433 1025.19 -161.447 1027.78 -161.447C1028.52 -161.447 1029.2 -161.622 1029.82 -161.914L1076.1 -81.8153ZM920.401 -166.451C920.401 -164.796 921.277 -163.394 922.523 -162.479L876.205 -82.2436C875.543 -82.5746 874.822 -82.7888 874.063 -82.7888C871.493 -82.7888 869.449 -80.8029 869.176 -78.3108H776.597C776.325 -80.8029 774.28 -82.8083 771.71 -82.8083C771.029 -82.8083 770.367 -82.672 769.763 -82.4189L723.542 -162.498C724.788 -163.413 725.664 -164.815 725.664 -166.47C725.664 -168.125 724.788 -169.546 723.542 -170.442L769.802 -250.599C770.425 -250.307 771.107 -250.132 771.846 -250.132C774.416 -250.132 776.48 -252.098 776.733 -254.63H869.312C869.585 -252.118 871.629 -250.132 874.199 -250.132C874.939 -250.132 875.621 -250.307 876.244 -250.599L922.523 -170.442C921.277 -169.527 920.401 -168.125 920.401 -166.451ZM768.926 -81.8348C767.621 -80.9392 766.726 -79.4984 766.726 -77.8045C766.726 -76.1106 767.621 -74.6893 768.906 -73.7743L722.685 6.30519C722.062 6.03262 721.381 5.85731 720.641 5.85731C718.071 5.85731 716.007 7.82376 715.754 10.3548H623.175C622.902 7.84323 620.858 5.85731 618.268 5.85731C617.548 5.85731 616.867 6.01315 616.244 6.30519L569.964 -73.8327C571.229 -74.7477 572.106 -76.1496 572.106 -77.8045C572.106 -79.4789 571.21 -80.8807 569.944 -81.7958L616.205 -161.914C616.847 -161.642 617.529 -161.466 618.249 -161.466C620.838 -161.466 622.883 -163.452 623.136 -165.964H715.754C716.007 -163.452 718.071 -161.466 720.66 -161.466C721.381 -161.466 722.062 -161.642 722.685 -161.895L768.926 -81.8348ZM569.146 -73.268L615.406 6.86978C614.16 7.76539 613.284 9.16715 613.284 10.8221C613.284 12.4965 614.16 13.9179 615.426 14.8135L569.166 94.9513C568.523 94.6787 567.842 94.484 567.102 94.484C564.532 94.484 562.468 96.4699 562.215 98.9815H469.636C469.363 96.4699 467.319 94.484 464.749 94.484C464.009 94.484 463.328 94.6592 462.705 94.9318L416.444 14.794C417.71 13.8984 418.566 12.4965 418.566 10.8221C418.566 9.16715 417.69 7.76539 416.444 6.86978L462.705 -73.268C463.328 -72.9954 464.009 -72.8203 464.749 -72.8203C467.319 -72.8203 469.383 -74.8062 469.636 -77.3178H562.234C562.507 -74.8062 564.551 -72.8203 567.121 -72.8203C567.842 -72.8203 568.523 -72.9954 569.146 -73.268ZM1083.89 -77.8045C1083.89 -80.5498 1081.65 -82.7888 1078.9 -82.7888C1078.18 -82.7888 1077.52 -82.633 1076.92 -82.3605L1030.66 -162.459C1031.92 -163.374 1032.78 -164.776 1032.78 -166.431C1032.78 -169.176 1030.54 -171.415 1027.8 -171.415C1025.23 -171.415 1023.16 -169.43 1022.91 -166.918H930.292C930.039 -169.43 927.975 -171.415 925.405 -171.415C924.685 -171.415 924.003 -171.221 923.361 -170.948L877.081 -251.105C878.346 -252.001 879.203 -253.403 879.203 -255.058C879.203 -257.823 876.964 -260.062 874.219 -260.062C871.649 -260.062 869.585 -258.076 869.332 -255.564H776.753C776.5 -258.076 774.455 -260.062 771.866 -260.062C769.121 -260.062 766.882 -257.823 766.882 -255.058C766.882 -253.403 767.758 -252.001 769.004 -251.105L722.744 -170.948C722.121 -171.221 721.439 -171.415 720.699 -171.415C718.11 -171.415 716.066 -169.43 715.793 -166.918H623.175C622.922 -169.43 620.877 -171.415 618.288 -171.415C615.543 -171.415 613.304 -169.176 613.304 -166.431C613.304 -164.757 614.18 -163.355 615.426 -162.459L569.146 -82.341C568.504 -82.6135 567.842 -82.7888 567.102 -82.7888C564.532 -82.7888 562.468 -80.8029 562.215 -78.2913H469.616C469.344 -80.7834 467.299 -82.7888 464.729 -82.7888C463.99 -82.7888 463.308 -82.6135 462.685 -82.341L416.425 -162.479C417.69 -163.394 418.547 -164.796 418.547 -166.451C418.547 -169.196 416.308 -171.435 413.563 -171.435C410.993 -171.435 408.929 -169.449 408.676 -166.937H316.097C315.844 -169.449 313.799 -171.435 311.21 -171.435C308.445 -171.435 306.206 -169.196 306.206 -166.451C306.206 -164.796 307.082 -163.394 308.328 -162.479L262.068 -82.341C261.445 -82.6135 260.763 -82.8083 260.024 -82.8083C257.454 -82.8083 255.39 -80.8224 255.137 -78.3108H162.577C162.305 -80.8224 160.26 -82.8083 157.69 -82.8083C156.97 -82.8083 156.269 -82.6135 155.646 -82.341L109.386 -162.459C110.651 -163.355 111.547 -164.776 111.547 -166.451C111.547 -168.106 110.671 -169.527 109.425 -170.423L155.685 -250.58C156.327 -250.288 157.009 -250.113 157.729 -250.113C160.299 -250.113 162.363 -252.098 162.616 -254.61H255.156C255.429 -252.118 257.473 -250.113 260.043 -250.113C262.788 -250.113 265.027 -252.352 265.027 -255.097C265.027 -256.752 264.151 -258.173 262.905 -259.069L309.185 -339.226C309.808 -338.934 310.49 -338.759 311.229 -338.759C313.975 -338.759 316.214 -340.998 316.214 -343.743C316.214 -346.488 313.975 -348.727 311.229 -348.727C310.49 -348.727 309.808 -348.533 309.185 -348.26L262.925 -428.398C264.19 -429.293 265.047 -430.715 265.047 -432.37C265.047 -435.115 262.808 -437.354 260.063 -437.354C257.493 -437.354 255.429 -435.368 255.176 -432.856H162.636C162.363 -435.348 160.319 -437.354 157.749 -437.354C157.009 -437.354 156.327 -437.159 155.704 -436.887L109.444 -517.044C110.71 -517.939 111.566 -519.341 111.566 -521.016C111.566 -523.761 109.327 -526 106.582 -526C104.012 -526 101.948 -524.014 101.695 -521.502H9.09649C8.84339 -524.014 6.79915 -526 4.20967 -526C1.46442 -526 -0.794094 -523.761 -0.794094 -521.016C-0.794094 -519.361 0.0819819 -517.959 1.32805 -517.063L-44.9323 -436.906C-45.5748 -437.179 -46.2562 -437.354 -46.9766 -437.354C-49.5466 -437.354 -51.6104 -435.368 -51.8635 -432.856H-144.423C-144.676 -435.348 -146.74 -437.354 -149.31 -437.354C-150.05 -437.354 -150.731 -437.159 -151.354 -436.906L-197.615 -517.044C-196.369 -517.939 -195.492 -519.361 -195.492 -521.016C-195.492 -523.761 -197.712 -526 -200.457 -526C-203.027 -526 -205.111 -524.014 -205.344 -521.502H-297.943C-298.196 -524.014 -300.24 -526 -302.83 -526C-305.575 -526 -307.814 -523.761 -307.814 -521.016C-307.814 -519.361 -306.938 -517.939 -305.692 -517.044L-351.971 -436.906C-352.594 -437.179 -353.276 -437.354 -354.016 -437.354C-356.761 -437.354 -359 -435.115 -359 -432.37C-359 -429.624 -356.761 -427.385 -354.016 -427.385C-353.276 -427.385 -352.594 -427.58 -351.971 -427.853L-305.75 -347.773C-307.074 -346.878 -308.009 -345.437 -308.009 -343.723C-308.009 -340.978 -305.769 -338.739 -303.024 -338.739C-300.454 -338.739 -298.371 -340.725 -298.137 -343.237H-205.558C-205.305 -340.725 -203.261 -338.739 -200.671 -338.739C-199.893 -338.739 -199.172 -338.953 -198.51 -339.284L-152.23 -259.146C-153.574 -258.251 -154.489 -256.81 -154.489 -255.077C-154.489 -252.332 -152.25 -250.093 -149.505 -250.093C-146.935 -250.093 -144.871 -252.079 -144.618 -254.591H-51.8635C-51.591 -252.098 -49.5466 -250.093 -46.9766 -250.093C-46.2562 -250.093 -45.5748 -250.268 -44.9323 -250.541L1.32805 -170.423C0.0625121 -169.507 -0.813583 -168.086 -0.813583 -166.431C-0.813583 -164.796 0.0625928 -163.394 1.28919 -162.479L-45.0491 -82.2242C-45.7111 -82.5551 -46.4314 -82.7693 -47.2297 -82.7693C-49.9749 -82.7693 -52.214 -80.5303 -52.214 -77.785C-52.214 -75.0398 -49.9749 -72.7813 -47.2297 -72.7813C-46.4314 -72.7813 -45.7111 -73.0149 -45.0491 -73.3459L1.23073 6.79194C-0.112693 7.68755 -1.02772 9.14772 -1.02772 10.8611C-1.02772 13.6063 1.2113 15.8453 3.95655 15.8453C6.52657 15.8453 8.59027 13.8594 8.84338 11.3478H101.481C101.714 13.8594 103.778 15.8453 106.368 15.8453C107.147 15.8453 107.848 15.6312 108.49 15.3391L154.75 95.477C153.446 96.3726 152.531 97.8134 152.531 99.5073C152.531 101.201 153.446 102.622 154.731 103.538L108.471 183.675C107.828 183.364 107.127 183.169 106.348 183.169C103.778 183.169 101.714 185.155 101.461 187.667V188.621C101.734 191.132 103.778 193.118 106.348 193.118C107.127 193.118 107.828 192.924 108.471 192.612L154.77 272.769C153.485 273.665 152.589 275.106 152.589 276.78C152.589 278.474 153.485 279.895 154.77 280.791L155.588 281.355C156.191 281.628 156.853 281.784 157.573 281.784C160.143 281.784 162.207 279.798 162.46 277.286H255.059C255.331 279.798 257.376 281.784 259.946 281.784C260.705 281.784 261.426 281.589 262.068 281.278L308.348 361.435C307.082 362.35 306.226 363.752 306.226 365.407C306.226 368.171 308.465 370.391 311.21 370.391C313.78 370.391 315.844 368.424 316.097 365.893H408.676C408.948 368.405 410.993 370.391 413.563 370.391C416.308 370.391 418.547 368.171 418.547 365.407C418.547 363.752 417.671 362.35 416.425 361.435L462.705 281.297C463.328 281.57 464.009 281.764 464.749 281.764C467.319 281.764 469.402 279.778 469.636 277.267H562.215C562.487 279.778 564.532 281.764 567.102 281.764C567.842 281.764 568.523 281.589 569.146 281.316L569.964 280.752C571.229 279.856 572.125 278.454 572.125 276.78C572.125 275.125 571.249 273.704 569.983 272.808L616.244 192.67C616.867 192.943 617.548 193.118 618.288 193.118C620.877 193.118 622.941 191.132 623.194 188.621V187.667C622.922 185.155 620.877 183.169 618.288 183.169C617.568 183.169 616.886 183.344 616.244 183.617L569.983 103.479C571.229 102.564 572.106 101.162 572.106 99.5267C572.106 97.8523 571.229 96.4504 569.983 95.5548L616.244 15.3976C616.867 15.6896 617.548 15.8648 618.288 15.8648C620.877 15.8648 622.941 13.8789 623.194 11.3673H715.773C716.027 13.8789 718.071 15.8648 720.66 15.8648C723.406 15.8648 725.645 13.6258 725.645 10.8611C725.645 9.20613 724.768 7.80435 723.522 6.88927L769.744 -73.1902C770.347 -72.9176 771.009 -72.7618 771.73 -72.7618C774.3 -72.7618 776.364 -74.7673 776.617 -77.2789H869.196C869.449 -74.7673 871.493 -72.7618 874.082 -72.7618C874.881 -72.7618 875.601 -72.9954 876.263 -73.3264L922.562 6.8308C921.277 7.72641 920.362 9.16719 920.362 10.8611C920.362 13.6258 922.601 15.8648 925.346 15.8648C927.916 15.8648 929.98 13.8789 930.233 11.3673H1022.83C1023.09 13.8789 1025.15 15.8648 1027.72 15.8648C1030.46 15.8648 1032.7 13.6258 1032.7 10.8611C1032.7 9.2256 1031.85 7.84321 1030.62 6.92812L1076.9 -73.2096C1077.52 -72.937 1078.18 -72.7813 1078.9 -72.7813C1081.65 -72.8202 1083.89 -75.0593 1083.89 -77.8045ZM462.705 272.224L439.594 232.194L416.425 192.086C417.69 191.191 418.566 189.769 418.566 188.114C418.566 186.46 417.69 185.038 416.425 184.143L462.685 104.005C463.328 104.277 464.009 104.453 464.729 104.453C467.299 104.453 469.363 102.467 469.616 99.955H562.195C562.448 102.447 564.512 104.453 567.082 104.453C567.822 104.453 568.504 104.277 569.146 103.985L615.406 184.143C614.141 185.038 613.265 186.44 613.265 188.114C613.265 189.769 614.141 191.171 615.387 192.067L569.146 272.224C568.523 271.932 567.842 271.757 567.102 271.757C564.532 271.757 562.468 273.743 562.215 276.254H469.636C469.383 273.743 467.319 271.757 464.749 271.757C464.009 271.776 463.328 271.951 462.705 272.224ZM264.911 99.4878C264.911 97.8523 264.054 96.4699 262.847 95.5548L309.107 15.4171C309.73 15.6896 310.373 15.8259 311.074 15.8259C313.644 15.8259 315.727 13.8399 315.961 11.3283H408.676C408.929 13.8399 410.973 15.8259 413.563 15.8259C414.303 15.8259 414.984 15.6506 415.607 15.3586L461.867 95.4965C460.602 96.3921 459.726 97.8134 459.726 99.4878C459.726 101.143 460.602 102.544 461.867 103.46L415.607 183.578C414.984 183.305 414.303 183.13 413.563 183.13C410.993 183.13 408.909 185.116 408.676 187.628H316.058C315.805 185.116 313.76 183.13 311.171 183.13C310.431 183.13 309.75 183.305 309.127 183.578L262.847 103.401C264.073 102.486 264.911 101.123 264.911 99.4878ZM264.95 276.761C264.95 275.106 264.093 273.723 262.886 272.828L309.146 192.651C309.789 192.923 310.451 193.099 311.19 193.099C313.76 193.099 315.824 191.113 316.077 188.601H408.695C408.948 191.113 411.012 193.099 413.582 193.099C414.322 193.099 415.004 192.923 415.627 192.631L438.737 232.681L461.887 272.769C460.621 273.665 459.765 275.086 459.765 276.741C459.765 278.396 460.641 279.798 461.887 280.693L415.627 360.851C414.984 360.578 414.303 360.383 413.582 360.383C411.012 360.383 408.948 362.369 408.695 364.881H316.116C315.844 362.369 313.799 360.383 311.229 360.383C310.49 360.383 309.808 360.578 309.185 360.851L262.905 280.674C264.093 279.778 264.95 278.396 264.95 276.761ZM155.588 104.063C156.191 104.336 156.853 104.492 157.554 104.492C160.124 104.492 162.188 102.486 162.441 99.994H255.039C255.292 102.486 257.337 104.492 259.926 104.492C260.686 104.492 261.406 104.297 262.049 103.966L308.328 184.162C307.063 185.058 306.187 186.479 306.187 188.134C306.187 189.789 307.063 191.21 308.328 192.106L262.049 272.283C261.406 271.971 260.705 271.776 259.946 271.776C257.376 271.776 255.331 273.762 255.059 276.274H162.46C162.207 273.782 160.163 271.776 157.573 271.776C156.853 271.776 156.191 271.932 155.588 272.205L109.308 192.047C110.495 191.132 111.352 189.75 111.352 188.134C111.352 186.498 110.515 185.116 109.308 184.201L155.588 104.063ZM-154.314 -432.389C-154.314 -430.734 -153.438 -429.313 -152.191 -428.417L-198.51 -348.182C-199.172 -348.513 -199.893 -348.727 -200.671 -348.727C-203.241 -348.727 -205.286 -346.741 -205.558 -344.23H-298.137C-298.41 -346.722 -300.454 -348.727 -303.024 -348.727C-303.706 -348.727 -304.348 -348.591 -304.932 -348.338L-351.173 -428.417C-349.927 -429.313 -349.051 -430.734 -349.051 -432.389C-349.051 -434.044 -349.927 -435.465 -351.173 -436.361L-304.913 -516.518C-304.27 -516.226 -303.589 -516.051 -302.869 -516.051C-300.298 -516.051 -298.235 -518.037 -297.982 -520.548H-205.383C-205.13 -518.037 -203.066 -516.051 -200.496 -516.051C-199.756 -516.051 -199.075 -516.226 -198.452 -516.518L-152.191 -436.361C-153.418 -435.465 -154.314 -434.063 -154.314 -432.389ZM-44.9128 -427.872L1.34754 -347.715C0.0820009 -346.819 -0.774605 -345.398 -0.774605 -343.762C-0.774605 -342.088 0.101471 -340.706 1.34754 -339.791L-44.9128 -259.653C-45.5358 -259.945 -46.2172 -260.101 -46.9571 -260.101C-49.5271 -260.101 -51.5909 -258.134 -51.844 -255.603H-144.598C-144.871 -258.095 -146.915 -260.101 -149.485 -260.101C-150.167 -260.101 -150.829 -259.945 -151.413 -259.692L-197.692 -339.849C-196.505 -340.764 -195.668 -342.127 -195.668 -343.743C-195.668 -345.359 -196.485 -346.722 -197.692 -347.637L-151.354 -427.872C-150.731 -427.599 -150.05 -427.405 -149.31 -427.405C-146.74 -427.405 -144.657 -429.391 -144.423 -431.902H-51.844C-51.5715 -429.391 -49.5271 -427.405 -46.9571 -427.405C-46.2367 -427.405 -45.5553 -427.58 -44.9128 -427.872ZM154.887 -436.361C153.621 -435.446 152.764 -434.044 152.764 -432.389C152.764 -430.734 153.621 -429.352 154.867 -428.437L108.607 -348.279C107.984 -348.552 107.322 -348.727 106.582 -348.727C104.012 -348.727 101.948 -346.741 101.695 -344.23H9.09649C8.84339 -346.741 6.79915 -348.727 4.20967 -348.727C3.46981 -348.727 2.78827 -348.533 2.16524 -348.26L-44.095 -428.398C-42.8294 -429.313 -41.9728 -430.734 -41.9728 -432.37C-41.9728 -434.044 -42.8489 -435.446 -44.095 -436.361L2.16524 -516.499C2.80774 -516.207 3.48918 -516.031 4.22904 -516.031C6.79905 -516.031 8.86287 -518.017 9.11598 -520.529H101.714C101.968 -518.017 104.031 -516.031 106.601 -516.031C107.341 -516.031 108.023 -516.207 108.646 -516.479L154.887 -436.361ZM155.685 -259.633L109.425 -339.771C110.69 -340.667 111.547 -342.088 111.547 -343.762C111.547 -345.417 110.671 -346.839 109.425 -347.734L155.685 -427.872C156.308 -427.599 157.009 -427.405 157.729 -427.405C160.299 -427.405 162.363 -429.391 162.616 -431.902H255.156C255.429 -429.391 257.473 -427.405 260.043 -427.405C260.783 -427.405 261.464 -427.599 262.087 -427.872L308.348 -347.734C307.082 -346.819 306.226 -345.417 306.226 -343.762C306.226 -342.088 307.102 -340.686 308.348 -339.791L262.087 -259.633C261.464 -259.925 260.783 -260.101 260.043 -260.101C257.473 -260.101 255.409 -258.134 255.156 -255.603H162.616C162.344 -258.115 160.299 -260.101 157.729 -260.101C157.009 -260.101 156.327 -259.925 155.685 -259.633ZM108.607 -170.987C107.984 -171.26 107.302 -171.435 106.562 -171.435C103.992 -171.435 101.929 -169.449 101.676 -166.937H9.09649C8.84339 -169.43 6.77968 -171.435 4.20967 -171.435C3.46981 -171.435 2.78827 -171.26 2.16524 -170.987L-44.095 -251.125C-42.8294 -252.021 -41.9533 -253.442 -41.9533 -255.097C-41.9533 -256.752 -42.8295 -258.173 -44.0756 -259.069L2.18473 -339.226C2.82723 -338.934 3.50865 -338.759 4.22904 -338.759C6.79905 -338.759 8.86287 -340.725 9.11598 -343.256H101.714C101.968 -340.745 104.031 -338.759 106.601 -338.759C107.341 -338.759 108.003 -338.914 108.626 -339.187L154.887 -259.069C153.621 -258.154 152.764 -256.752 152.764 -255.097C152.764 -253.442 153.641 -252.021 154.887 -251.125L108.607 -170.987ZM154.809 -81.7958C153.543 -80.8807 152.686 -79.4595 152.686 -77.8045C152.686 -76.1496 153.563 -74.7478 154.809 -73.8522L108.49 6.36354C107.848 6.05202 107.147 5.85731 106.368 5.85731C103.798 5.85731 101.753 7.82376 101.481 10.3548H8.84338C8.5708 7.84323 6.52657 5.85731 3.95655 5.85731C3.2751 5.85731 2.63252 5.99362 2.04842 6.24673L-44.2313 -73.9106C-43.0436 -74.8062 -42.2454 -76.169 -42.2454 -77.785C-42.2454 -79.401 -43.0436 -80.7639 -44.2313 -81.679L2.10689 -161.953C2.7494 -161.661 3.45034 -161.447 4.20967 -161.447C6.77968 -161.447 8.82392 -163.433 9.09649 -165.944H101.676C101.948 -163.433 103.992 -161.447 106.562 -161.447C107.283 -161.447 107.964 -161.622 108.568 -161.875L154.809 -81.7958ZM285.179 -33.2575L308.309 6.79194C307.004 7.68755 306.089 9.12821 306.089 10.8221C306.089 12.516 306.985 13.9373 308.289 14.8524L262.029 95.0097C261.367 94.6982 260.686 94.5035 259.907 94.5035C257.337 94.5035 255.273 96.4699 255.02 99.001H162.421C162.149 96.4894 160.124 94.5035 157.535 94.5035C156.834 94.5035 156.172 94.6397 155.568 94.9123L109.308 14.755C110.515 13.8594 111.352 12.477 111.352 10.8416C111.352 9.20611 110.515 7.84321 109.308 6.92812L155.626 -73.2875C156.249 -73.0149 156.931 -72.8203 157.671 -72.8203C160.241 -72.8203 162.305 -74.8062 162.558 -77.3178H255.117C255.37 -74.8062 257.415 -72.8203 260.004 -72.8203C260.744 -72.8203 261.426 -73.0149 262.049 -73.2875L285.179 -33.2575ZM461.867 -81.7958C460.602 -80.9002 459.745 -79.4789 459.745 -77.824C459.745 -76.1691 460.621 -74.7478 461.867 -73.8522L415.607 6.28571C414.984 5.99366 414.303 5.83782 413.582 5.83782C411.012 5.83782 408.948 7.80427 408.695 10.3353H315.98C315.707 7.82374 313.663 5.83782 311.093 5.83782C310.412 5.83782 309.75 5.97415 309.127 6.24673L286.035 -33.7443L262.886 -73.8522C264.132 -74.7478 265.008 -76.1496 265.008 -77.8045C265.008 -79.4595 264.132 -80.8808 262.886 -81.7764L309.146 -161.934C309.769 -161.642 310.451 -161.466 311.19 -161.466C313.76 -161.466 315.824 -163.452 316.077 -165.964H408.656C408.909 -163.452 410.973 -161.466 413.543 -161.466C414.283 -161.466 414.965 -161.642 415.588 -161.934L461.867 -81.7958Z" fill="white"/>
<path opacity="0.04" d="M1005.1 871.185C1003.82 872.08 1002.9 873.502 1002.9 875.195C1002.9 876.889 1003.8 878.311 1005.1 879.206L958.822 959.364C958.179 959.052 957.478 958.857 956.719 958.857C954.149 958.857 952.085 960.824 951.832 963.355H859.233C858.961 960.843 856.916 958.857 854.346 958.857C853.646 958.857 852.984 958.994 852.38 959.266L806.081 879.089C807.269 878.174 808.067 876.811 808.067 875.215C808.067 873.618 807.249 872.256 806.061 871.34L852.38 791.125C853.003 791.397 853.685 791.553 854.385 791.553C856.955 791.553 859.019 789.567 859.272 787.056H951.89C952.144 789.567 954.188 791.553 956.777 791.553C957.517 791.553 958.199 791.378 958.822 791.086L1005.1 871.185ZM849.401 786.549C849.401 788.204 850.277 789.606 851.523 790.521L805.205 870.756C804.543 870.425 803.822 870.211 803.063 870.211C800.493 870.211 798.449 872.197 798.176 874.689H705.597C705.325 872.197 703.28 870.192 700.71 870.192C700.029 870.192 699.367 870.328 698.763 870.581L652.542 790.502C653.788 789.587 654.664 788.185 654.664 786.53C654.664 784.875 653.788 783.454 652.542 782.558L698.802 702.401C699.425 702.693 700.107 702.868 700.846 702.868C703.416 702.868 705.48 700.902 705.733 698.37H798.312C798.585 700.882 800.629 702.868 803.199 702.868C803.939 702.868 804.621 702.693 805.244 702.401L851.523 782.558C850.277 783.473 849.401 784.875 849.401 786.549ZM697.926 871.165C696.621 872.061 695.726 873.502 695.726 875.195C695.726 876.889 696.621 878.311 697.906 879.226L651.685 959.305C651.062 959.033 650.381 958.857 649.641 958.857C647.071 958.857 645.007 960.824 644.754 963.355H552.175C551.902 960.843 549.858 958.857 547.268 958.857C546.548 958.857 545.867 959.013 545.244 959.305L498.964 879.167C500.229 878.252 501.106 876.85 501.106 875.195C501.106 873.521 500.21 872.119 498.944 871.204L545.205 791.086C545.847 791.358 546.529 791.534 547.249 791.534C549.838 791.534 551.883 789.548 552.136 787.036H644.754C645.007 789.548 647.071 791.534 649.66 791.534C650.381 791.534 651.062 791.358 651.685 791.105L697.926 871.165ZM498.146 879.732L544.406 959.87C543.16 960.765 542.284 962.167 542.284 963.822C542.284 965.496 543.16 966.918 544.426 967.814L498.166 1047.95C497.523 1047.68 496.842 1047.48 496.102 1047.48C493.532 1047.48 491.468 1049.47 491.215 1051.98H398.636C398.363 1049.47 396.319 1047.48 393.749 1047.48C393.009 1047.48 392.328 1047.66 391.705 1047.93L345.444 967.794C346.71 966.898 347.566 965.496 347.566 963.822C347.566 962.167 346.69 960.765 345.444 959.87L391.705 879.732C392.328 880.005 393.009 880.18 393.749 880.18C396.319 880.18 398.383 878.194 398.636 875.682H491.234C491.507 878.194 493.551 880.18 496.121 880.18C496.842 880.18 497.523 880.005 498.146 879.732ZM1012.89 875.195C1012.89 872.45 1010.65 870.211 1007.9 870.211C1007.18 870.211 1006.52 870.367 1005.92 870.64L959.659 790.541C960.924 789.626 961.781 788.224 961.781 786.569C961.781 783.824 959.542 781.585 956.797 781.585C954.227 781.585 952.163 783.57 951.91 786.082H859.292C859.039 783.57 856.975 781.585 854.405 781.585C853.685 781.585 853.003 781.779 852.361 782.052L806.081 701.895C807.346 700.999 808.203 699.597 808.203 697.942C808.203 695.177 805.964 692.938 803.219 692.938C800.649 692.938 798.585 694.924 798.332 697.436H705.753C705.5 694.924 703.455 692.938 700.866 692.938C698.121 692.938 695.882 695.177 695.882 697.942C695.882 699.597 696.758 700.999 698.004 701.895L651.744 782.052C651.121 781.779 650.439 781.585 649.699 781.585C647.11 781.585 645.066 783.57 644.793 786.082H552.175C551.922 783.57 549.877 781.585 547.288 781.585C544.543 781.585 542.304 783.824 542.304 786.569C542.304 788.243 543.18 789.645 544.426 790.541L498.146 870.659C497.504 870.386 496.842 870.211 496.102 870.211C493.532 870.211 491.468 872.197 491.215 874.709H398.616C398.344 872.217 396.299 870.211 393.729 870.211C392.99 870.211 392.308 870.386 391.685 870.659L345.425 790.521C346.69 789.606 347.547 788.204 347.547 786.549C347.547 783.804 345.308 781.565 342.563 781.565C339.993 781.565 337.929 783.551 337.676 786.063H245.097C244.844 783.551 242.799 781.565 240.21 781.565C237.445 781.565 235.206 783.804 235.206 786.549C235.206 788.204 236.082 789.606 237.328 790.521L191.068 870.659C190.445 870.386 189.763 870.192 189.024 870.192C186.454 870.192 184.39 872.178 184.137 874.689H91.5772C91.3046 872.178 89.2602 870.192 86.6902 870.192C85.9698 870.192 85.269 870.386 84.6459 870.659L38.3856 790.541C39.6511 789.645 40.5467 788.224 40.5467 786.549C40.5467 784.894 39.6706 783.473 38.4246 782.577L84.6849 702.42C85.3274 702.712 86.0088 702.887 86.7292 702.887C89.2992 702.887 91.363 700.902 91.6162 698.39H184.156C184.429 700.882 186.473 702.887 189.043 702.887C191.788 702.887 194.027 700.648 194.027 697.903C194.027 696.248 193.151 694.827 191.905 693.931L238.185 613.774C238.808 614.066 239.49 614.241 240.229 614.241C242.975 614.241 245.214 612.002 245.214 609.257C245.214 606.512 242.975 604.273 240.229 604.273C239.49 604.273 238.808 604.467 238.185 604.74L191.925 524.602C193.19 523.707 194.047 522.285 194.047 520.63C194.047 517.885 191.808 515.646 189.063 515.646C186.493 515.646 184.429 517.632 184.176 520.144H91.6356C91.3631 517.652 89.3187 515.646 86.7487 515.646C86.0088 515.646 85.3274 515.841 84.7044 516.113L38.4441 435.956C39.7096 435.061 40.5662 433.659 40.5662 431.984C40.5662 429.239 38.3272 427 35.5819 427C33.0119 427 30.9481 428.986 30.695 431.498H-61.9035C-62.1566 428.986 -64.2008 427 -66.7903 427C-69.5356 427 -71.7941 429.239 -71.7941 431.984C-71.7941 433.639 -70.918 435.041 -69.6719 435.937L-115.932 516.094C-116.575 515.821 -117.256 515.646 -117.977 515.646C-120.547 515.646 -122.61 517.632 -122.864 520.144H-215.423C-215.676 517.652 -217.74 515.646 -220.31 515.646C-221.05 515.646 -221.731 515.841 -222.354 516.094L-268.615 435.956C-267.369 435.061 -266.492 433.639 -266.492 431.984C-266.492 429.239 -268.712 427 -271.457 427C-274.027 427 -276.111 428.986 -276.344 431.498H-368.943C-369.196 428.986 -371.24 427 -373.83 427C-376.575 427 -378.814 429.239 -378.814 431.984C-378.814 433.639 -377.938 435.061 -376.692 435.956L-422.971 516.094C-423.594 515.821 -424.276 515.646 -425.016 515.646C-427.761 515.646 -430 517.885 -430 520.63C-430 523.376 -427.761 525.615 -425.016 525.615C-424.276 525.615 -423.594 525.42 -422.971 525.147L-376.75 605.227C-378.074 606.122 -379.009 607.563 -379.009 609.277C-379.009 612.022 -376.769 614.261 -374.024 614.261C-371.454 614.261 -369.371 612.275 -369.137 609.763H-276.558C-276.305 612.275 -274.261 614.261 -271.671 614.261C-270.893 614.261 -270.172 614.047 -269.51 613.716L-223.23 693.854C-224.574 694.749 -225.489 696.19 -225.489 697.923C-225.489 700.668 -223.25 702.907 -220.505 702.907C-217.935 702.907 -215.871 700.921 -215.618 698.409H-122.864C-122.591 700.902 -120.547 702.907 -117.977 702.907C-117.256 702.907 -116.575 702.732 -115.932 702.459L-69.6719 782.577C-70.9375 783.493 -71.8136 784.914 -71.8136 786.569C-71.8136 788.204 -70.9374 789.606 -69.7108 790.521L-116.049 870.776C-116.711 870.445 -117.431 870.231 -118.23 870.231C-120.975 870.231 -123.214 872.47 -123.214 875.215C-123.214 877.96 -120.975 880.219 -118.23 880.219C-117.431 880.219 -116.711 879.985 -116.049 879.654L-69.7693 959.792C-71.1127 960.688 -72.0277 962.148 -72.0277 963.861C-72.0277 966.606 -69.7887 968.845 -67.0435 968.845C-64.4734 968.845 -62.4097 966.859 -62.1566 964.348H30.4808C30.7145 966.859 32.7783 968.845 35.3678 968.845C36.1466 968.845 36.8476 968.631 37.4901 968.339L83.7503 1048.48C82.4458 1049.37 81.5308 1050.81 81.5308 1052.51C81.5308 1054.2 82.4459 1055.62 83.7309 1056.54L37.4706 1136.68C36.8281 1136.36 36.1271 1136.17 35.3483 1136.17C32.7783 1136.17 30.7145 1138.15 30.4614 1140.67V1141.62C30.7339 1144.13 32.7783 1146.12 35.3483 1146.12C36.1271 1146.12 36.8281 1145.92 37.4706 1145.61L83.7698 1225.77C82.4847 1226.66 81.5891 1228.11 81.5891 1229.78C81.5891 1231.47 82.4847 1232.9 83.7698 1233.79L84.5876 1234.36C85.1911 1234.63 85.853 1234.78 86.5734 1234.78C89.1434 1234.78 91.2073 1232.8 91.4604 1230.29H184.059C184.331 1232.8 186.376 1234.78 188.946 1234.78C189.705 1234.78 190.426 1234.59 191.068 1234.28L237.348 1314.43C236.082 1315.35 235.226 1316.75 235.226 1318.41C235.226 1321.17 237.465 1323.39 240.21 1323.39C242.78 1323.39 244.844 1321.42 245.097 1318.89H337.676C337.948 1321.4 339.993 1323.39 342.563 1323.39C345.308 1323.39 347.547 1321.17 347.547 1318.41C347.547 1316.75 346.671 1315.35 345.425 1314.43L391.705 1234.3C392.328 1234.57 393.009 1234.76 393.749 1234.76C396.319 1234.76 398.402 1232.78 398.636 1230.27H491.215C491.487 1232.78 493.532 1234.76 496.102 1234.76C496.842 1234.76 497.523 1234.59 498.146 1234.32L498.964 1233.75C500.229 1232.86 501.125 1231.45 501.125 1229.78C501.125 1228.13 500.249 1226.7 498.983 1225.81L545.244 1145.67C545.867 1145.94 546.548 1146.12 547.288 1146.12C549.877 1146.12 551.941 1144.13 552.194 1141.62V1140.67C551.922 1138.15 549.877 1136.17 547.288 1136.17C546.568 1136.17 545.886 1136.34 545.244 1136.62L498.983 1056.48C500.229 1055.56 501.106 1054.16 501.106 1052.53C501.106 1050.85 500.229 1049.45 498.983 1048.55L545.244 968.398C545.867 968.69 546.548 968.865 547.288 968.865C549.877 968.865 551.941 966.879 552.194 964.367H644.773C645.027 966.879 647.071 968.865 649.66 968.865C652.406 968.865 654.645 966.626 654.645 963.861C654.645 962.206 653.768 960.804 652.522 959.889L698.744 879.81C699.347 880.082 700.009 880.238 700.73 880.238C703.3 880.238 705.364 878.233 705.617 875.721H798.196C798.449 878.233 800.493 880.238 803.082 880.238C803.881 880.238 804.601 880.005 805.263 879.674L851.562 959.831C850.277 960.726 849.362 962.167 849.362 963.861C849.362 966.626 851.601 968.865 854.346 968.865C856.916 968.865 858.98 966.879 859.233 964.367H951.832C952.085 966.879 954.149 968.865 956.719 968.865C959.464 968.865 961.703 966.626 961.703 963.861C961.703 962.226 960.847 960.843 959.62 959.928L1005.9 879.79C1006.52 880.063 1007.18 880.219 1007.9 880.219C1010.65 880.18 1012.89 877.941 1012.89 875.195ZM391.705 1225.22L368.594 1185.19L345.425 1145.09C346.69 1144.19 347.566 1142.77 347.566 1141.11C347.566 1139.46 346.69 1138.04 345.425 1137.14L391.685 1057C392.328 1057.28 393.009 1057.45 393.729 1057.45C396.299 1057.45 398.363 1055.47 398.616 1052.96H491.195C491.448 1055.45 493.512 1057.45 496.082 1057.45C496.822 1057.45 497.504 1057.28 498.146 1056.99L544.406 1137.14C543.141 1138.04 542.265 1139.44 542.265 1141.11C542.265 1142.77 543.141 1144.17 544.387 1145.07L498.146 1225.22C497.523 1224.93 496.842 1224.76 496.102 1224.76C493.532 1224.76 491.468 1226.74 491.215 1229.25H398.636C398.383 1226.74 396.319 1224.76 393.749 1224.76C393.009 1224.78 392.328 1224.95 391.705 1225.22ZM193.911 1052.49C193.911 1050.85 193.054 1049.47 191.847 1048.55L238.107 968.417C238.73 968.69 239.373 968.826 240.074 968.826C242.644 968.826 244.727 966.84 244.961 964.328H337.676C337.929 966.84 339.973 968.826 342.563 968.826C343.303 968.826 343.984 968.651 344.607 968.359L390.867 1048.5C389.602 1049.39 388.726 1050.81 388.726 1052.49C388.726 1054.14 389.602 1055.54 390.867 1056.46L344.607 1136.58C343.984 1136.31 343.303 1136.13 342.563 1136.13C339.993 1136.13 337.909 1138.12 337.676 1140.63H245.058C244.805 1138.12 242.76 1136.13 240.171 1136.13C239.431 1136.13 238.75 1136.31 238.127 1136.58L191.847 1056.4C193.073 1055.49 193.911 1054.12 193.911 1052.49ZM193.95 1229.76C193.95 1228.11 193.093 1226.72 191.886 1225.83L238.146 1145.65C238.789 1145.92 239.451 1146.1 240.19 1146.1C242.76 1146.1 244.824 1144.11 245.077 1141.6H337.695C337.948 1144.11 340.012 1146.1 342.582 1146.1C343.322 1146.1 344.004 1145.92 344.627 1145.63L367.737 1185.68L390.887 1225.77C389.621 1226.66 388.765 1228.09 388.765 1229.74C388.765 1231.4 389.641 1232.8 390.887 1233.69L344.627 1313.85C343.984 1313.58 343.303 1313.38 342.582 1313.38C340.012 1313.38 337.948 1315.37 337.695 1317.88H245.116C244.844 1315.37 242.799 1313.38 240.229 1313.38C239.49 1313.38 238.808 1313.58 238.185 1313.85L191.905 1233.67C193.093 1232.78 193.95 1231.4 193.95 1229.76ZM84.5876 1057.06C85.1911 1057.34 85.853 1057.49 86.5539 1057.49C89.1239 1057.49 91.1878 1055.49 91.4409 1052.99H184.039C184.292 1055.49 186.337 1057.49 188.926 1057.49C189.686 1057.49 190.406 1057.3 191.049 1056.97L237.328 1137.16C236.063 1138.06 235.187 1139.48 235.187 1141.13C235.187 1142.79 236.063 1144.21 237.328 1145.11L191.049 1225.28C190.406 1224.97 189.705 1224.78 188.946 1224.78C186.376 1224.78 184.331 1226.76 184.059 1229.27H91.4604C91.2073 1226.78 89.1629 1224.78 86.5734 1224.78C85.853 1224.78 85.1911 1224.93 84.5876 1225.2L38.3078 1145.05C39.4954 1144.13 40.3521 1142.75 40.3521 1141.13C40.3521 1139.5 39.5149 1138.12 38.3078 1137.2L84.5876 1057.06ZM-225.314 520.611C-225.314 522.266 -224.438 523.687 -223.191 524.583L-269.51 604.818C-270.172 604.487 -270.893 604.273 -271.671 604.273C-274.241 604.273 -276.286 606.259 -276.558 608.77H-369.137C-369.41 606.278 -371.454 604.273 -374.024 604.273C-374.706 604.273 -375.348 604.409 -375.932 604.662L-422.173 524.583C-420.927 523.687 -420.051 522.266 -420.051 520.611C-420.051 518.956 -420.927 517.535 -422.173 516.639L-375.913 436.482C-375.27 436.774 -374.589 436.949 -373.869 436.949C-371.298 436.949 -369.235 434.963 -368.982 432.452H-276.383C-276.13 434.963 -274.066 436.949 -271.496 436.949C-270.756 436.949 -270.075 436.774 -269.452 436.482L-223.191 516.639C-224.418 517.535 -225.314 518.937 -225.314 520.611ZM-115.913 525.128L-69.6525 605.285C-70.918 606.181 -71.7746 607.602 -71.7746 609.238C-71.7746 610.912 -70.8985 612.294 -69.6525 613.209L-115.913 693.347C-116.536 693.055 -117.217 692.899 -117.957 692.899C-120.527 692.899 -122.591 694.866 -122.844 697.397H-215.598C-215.871 694.905 -217.915 692.899 -220.485 692.899C-221.167 692.899 -221.829 693.055 -222.413 693.308L-268.692 613.151C-267.505 612.236 -266.668 610.873 -266.668 609.257C-266.668 607.641 -267.485 606.278 -268.692 605.363L-222.354 525.128C-221.731 525.401 -221.05 525.595 -220.31 525.595C-217.74 525.595 -215.657 523.609 -215.423 521.098H-122.844C-122.571 523.609 -120.527 525.595 -117.957 525.595C-117.237 525.595 -116.555 525.42 -115.913 525.128ZM83.8866 516.639C82.621 517.554 81.7644 518.956 81.7644 520.611C81.7644 522.266 82.621 523.648 83.8671 524.563L37.6069 604.721C36.9838 604.448 36.3218 604.273 35.5819 604.273C33.0119 604.273 30.9481 606.259 30.695 608.77H-61.9035C-62.1566 606.259 -64.2008 604.273 -66.7903 604.273C-67.5302 604.273 -68.2117 604.467 -68.8348 604.74L-115.095 524.602C-113.829 523.687 -112.973 522.266 -112.973 520.63C-112.973 518.956 -113.849 517.554 -115.095 516.639L-68.8348 436.501C-68.1923 436.793 -67.5108 436.969 -66.771 436.969C-64.2009 436.969 -62.1371 434.983 -61.884 432.471H30.7145C30.9676 434.983 33.0314 436.969 35.6014 436.969C36.3413 436.969 37.0227 436.793 37.6457 436.521L83.8866 516.639ZM84.6849 693.367L38.4246 613.229C39.6901 612.333 40.5467 610.912 40.5467 609.238C40.5467 607.583 39.6706 606.161 38.4246 605.266L84.6849 525.128C85.3079 525.401 86.0088 525.595 86.7292 525.595C89.2992 525.595 91.363 523.609 91.6162 521.098H184.156C184.429 523.609 186.473 525.595 189.043 525.595C189.783 525.595 190.464 525.401 191.087 525.128L237.348 605.266C236.082 606.181 235.226 607.583 235.226 609.238C235.226 610.912 236.102 612.314 237.348 613.209L191.087 693.367C190.464 693.075 189.783 692.899 189.043 692.899C186.473 692.899 184.409 694.866 184.156 697.397H91.6162C91.3436 694.885 89.2992 692.899 86.7292 692.899C86.0088 692.899 85.3274 693.075 84.6849 693.367ZM37.6069 782.013C36.9838 781.74 36.3023 781.565 35.5624 781.565C32.9924 781.565 30.9287 783.551 30.6756 786.063H-61.9035C-62.1566 783.57 -64.2203 781.565 -66.7903 781.565C-67.5302 781.565 -68.2117 781.74 -68.8348 782.013L-115.095 701.875C-113.829 700.979 -112.953 699.558 -112.953 697.903C-112.953 696.248 -113.83 694.827 -115.076 693.931L-68.8153 613.774C-68.1728 614.066 -67.4913 614.241 -66.771 614.241C-64.2009 614.241 -62.1371 612.275 -61.884 609.744H30.7145C30.9676 612.255 33.0314 614.241 35.6014 614.241C36.3413 614.241 37.0032 614.086 37.6262 613.813L83.8866 693.931C82.621 694.846 81.7644 696.248 81.7644 697.903C81.7644 699.558 82.6405 700.979 83.8866 701.875L37.6069 782.013ZM83.8087 871.204C82.5432 872.119 81.6865 873.541 81.6865 875.195C81.6865 876.85 82.5627 878.252 83.8087 879.148L37.4901 959.364C36.8476 959.052 36.1466 958.857 35.3678 958.857C32.7978 958.857 30.7534 960.824 30.4808 963.355H-62.1566C-62.4292 960.843 -64.4734 958.857 -67.0435 958.857C-67.7249 958.857 -68.3675 958.994 -68.9516 959.247L-115.231 879.089C-114.044 878.194 -113.245 876.831 -113.245 875.215C-113.245 873.599 -114.044 872.236 -115.231 871.321L-68.8931 791.047C-68.2506 791.339 -67.5497 791.553 -66.7903 791.553C-64.2203 791.553 -62.1761 789.567 -61.9035 787.056H30.6756C30.9482 789.567 32.9924 791.553 35.5624 791.553C36.2828 791.553 36.9643 791.378 37.5679 791.125L83.8087 871.204ZM214.179 919.742L237.309 959.792C236.004 960.688 235.089 962.128 235.089 963.822C235.089 965.516 235.985 966.937 237.289 967.852L191.029 1048.01C190.367 1047.7 189.686 1047.5 188.907 1047.5C186.337 1047.5 184.273 1049.47 184.02 1052H91.4214C91.1488 1049.49 89.124 1047.5 86.5346 1047.5C85.8336 1047.5 85.1717 1047.64 84.5681 1047.91L38.3078 967.755C39.5149 966.859 40.3521 965.477 40.3521 963.842C40.3521 962.206 39.5149 960.843 38.3078 959.928L84.6264 879.712C85.2495 879.985 85.9309 880.18 86.6707 880.18C89.2408 880.18 91.3046 878.194 91.5577 875.682H184.117C184.37 878.194 186.415 880.18 189.004 880.18C189.744 880.18 190.426 879.985 191.049 879.712L214.179 919.742ZM390.867 871.204C389.602 872.1 388.745 873.521 388.745 875.176C388.745 876.831 389.621 878.252 390.867 879.148L344.607 959.286C343.984 958.994 343.303 958.838 342.582 958.838C340.012 958.838 337.948 960.804 337.695 963.335H244.98C244.707 960.824 242.663 958.838 240.093 958.838C239.412 958.838 238.75 958.974 238.127 959.247L215.035 919.256L191.886 879.148C193.132 878.252 194.008 876.85 194.008 875.195C194.008 873.541 193.132 872.119 191.886 871.224L238.146 791.066C238.769 791.358 239.451 791.534 240.19 791.534C242.76 791.534 244.824 789.548 245.077 787.036H337.656C337.909 789.548 339.973 791.534 342.543 791.534C343.283 791.534 343.965 791.358 344.588 791.066L390.867 871.204Z" fill="white"/>
<path opacity="0.5" d="M418.711 -65.926C99.854 -65.926 -158.627 192.555 -158.627 511.413C-158.627 830.27 99.854 1088.75 418.711 1088.75C737.549 1088.73 996.031 830.251 996.031 511.413C996.031 192.555 737.549 -65.926 418.711 -65.926ZM418.711 855.406C228.725 855.406 74.7185 701.399 74.7185 511.413C74.7185 321.426 228.725 167.42 418.711 167.42C608.698 167.42 762.704 321.426 762.704 511.413C762.704 701.38 608.679 855.406 418.711 855.406Z" fill="url(#paint0_linear_305_4033)"/>
<g filter="url(#filter1_di_305_4033)">
<path d="M544.175 513.772C544.155 518.639 543.357 523.565 541.702 528.393C541.449 529.133 541.177 529.873 540.884 530.613C538.996 535.325 536.426 539.53 533.33 543.21C532.785 543.852 532.22 544.476 531.656 545.099C527.664 549.324 522.933 552.731 517.754 555.164C507.591 559.935 495.714 561.005 484.344 557.423L369.745 511.591L375.216 498.176L468.32 535.403L486.505 542.665C496.824 546.792 508.039 545.06 516.45 539.024C517.19 538.498 517.91 537.934 518.611 537.33C522.33 534.156 525.348 530.048 527.294 525.181C527.587 524.441 527.859 523.701 528.093 522.942C529.689 517.86 529.942 512.642 528.988 507.697C527.061 497.534 520.13 488.539 509.811 484.411C499.492 480.283 488.277 482.016 479.866 488.052C476.264 490.641 473.168 494.01 470.89 498.04L457.32 492.394C459.325 488.519 461.817 485.034 464.68 481.977C477.257 468.641 497.175 463.617 515.243 470.821C533.311 478.064 544.272 495.451 544.175 513.772Z" fill="#F5ECFA"/>
<path d="M453.309 505.146L467.366 510.773C467.561 507.502 468.281 504.192 469.566 500.96L455.996 495.528C454.711 498.702 453.835 501.914 453.309 505.146Z" fill="#F5ECFA"/>
<path d="M307.422 503.16C305.825 508.241 305.572 513.459 306.526 518.405C308.454 528.568 315.385 537.563 325.704 541.691C336.023 545.818 347.238 544.085 355.649 538.05C359.737 535.11 363.183 531.157 365.52 526.387L379.129 531.819C377.007 536.453 374.184 540.581 370.835 544.124C358.258 557.461 338.34 562.504 320.272 555.281C302.223 548.057 291.262 530.69 291.34 512.35C291.359 507.482 292.158 502.556 293.812 497.728C294.066 496.988 294.338 496.248 294.63 495.508C296.519 490.797 299.089 486.591 302.184 482.911C302.73 482.269 303.294 481.646 303.859 481.023C307.85 476.798 312.581 473.39 317.76 470.957C327.924 466.187 339.8 465.116 351.171 468.698L466.997 515.017L461.467 528.412L368.577 491.264L349.009 483.437C338.69 479.309 327.476 481.042 319.065 487.078C318.325 487.603 317.605 488.168 316.923 488.772C313.204 491.945 310.187 496.053 308.24 500.921C307.909 501.661 307.656 502.401 307.422 503.16Z" fill="#F5ECFA"/>
<path d="M399.942 484.314L386.313 478.687L404.44 439.611L417.796 445.822L399.942 484.314Z" fill="#F5ECFA"/>
</g>
<g opacity="0.5">
<g opacity="0.5">
<path opacity="0.3" d="M715.003 904.142L662.454 813.14L715.003 722.158H820.062L872.592 813.14L820.062 904.142H715.003Z" fill="white"/>
<path opacity="0.3" d="M34.9294 945.984L-17.6196 854.982L34.9294 764H139.989L192.518 854.982L139.989 945.984H34.9294Z" fill="white"/>
<path opacity="0.5" d="M544.623 1002.5L492.074 911.52L544.623 820.518H649.682L702.212 911.52L649.682 1002.5H544.623Z" fill="white"/>
<path opacity="0.5" d="M-135.451 1044.34L-188 953.362L-135.451 862.36H-30.3918L22.1378 953.362L-30.3918 1044.34H-135.451Z" fill="white" stroke="#020203" stroke-width="1.05604" stroke-miterlimit="10"/>
</g>
<path opacity="0.3" d="M820.043 904.142L767.533 813.14L820.043 722.158H925.122L977.651 813.14L925.122 904.142H820.043Z" fill="white"/>
<path opacity="0.3" d="M10.5101 747.985L-42 656.983L10.5101 566H115.589L168.118 656.983L115.589 747.985H10.5101Z" fill="white"/>
<path opacity="0.5" d="M649.682 1002.5L597.152 911.521L649.682 820.518H754.741L807.271 911.521L754.741 1002.5H649.682Z" fill="white"/>
<path opacity="0.5" d="M-30.3918 1044.35L-82.9214 953.363L-30.3918 862.36H74.6674L127.197 953.363L74.6674 1044.35H-30.3918Z" fill="white"/>
</g>
<path opacity="0.2" d="M2381.89 449.326C2380.32 450.435 2379.23 452.168 2379.23 454.232C2379.23 456.296 2380.32 458.029 2381.89 459.138L2325.33 557.091C2324.55 556.702 2323.7 556.468 2322.76 556.468C2319.61 556.468 2317.1 558.882 2316.79 561.939H2203.59C2203.28 558.882 2200.77 556.468 2197.61 556.468C2196.75 556.468 2195.96 556.643 2195.22 556.955L2138.62 458.963C2140.06 457.834 2141.05 456.179 2141.05 454.212C2141.05 452.265 2140.08 450.591 2138.62 449.481L2195.22 351.412C2195.98 351.762 2196.79 351.957 2197.69 351.957C2200.84 351.957 2203.34 349.523 2203.67 346.447H2316.88C2317.2 349.523 2319.71 351.957 2322.86 351.957C2323.76 351.957 2324.61 351.743 2325.37 351.392L2381.89 449.326ZM2191.58 345.863C2191.58 347.907 2192.65 349.64 2194.18 350.75L2137.57 448.8C2136.77 448.41 2135.89 448.157 2134.94 448.157C2131.8 448.157 2129.29 450.591 2128.96 453.648H2015.78C2015.45 450.591 2012.96 448.157 2009.81 448.157C2008.97 448.157 2008.17 448.333 2007.45 448.644L1950.95 350.75C1952.49 349.659 1953.56 347.927 1953.56 345.882C1953.56 343.857 1952.49 342.144 1950.95 341.034L2007.51 243.062C2008.27 243.413 2009.1 243.627 2010 243.627C2013.15 243.627 2015.65 241.193 2015.96 238.136H2129.14C2129.45 241.213 2131.98 243.627 2135.11 243.627C2136.01 243.627 2136.85 243.413 2137.61 243.062L2194.17 341.034C2192.65 342.125 2191.58 343.838 2191.58 345.863ZM2006.44 449.306C2004.84 450.416 2003.73 452.149 2003.73 454.232C2003.73 456.315 2004.84 458.048 2006.42 459.158L1949.92 557.052C1949.16 556.702 1948.32 556.487 1947.42 556.487C1944.27 556.487 1941.76 558.902 1941.45 561.958H1828.29C1827.98 558.902 1825.47 556.487 1822.31 556.487C1821.42 556.487 1820.6 556.682 1819.82 557.033L1763.26 459.099C1764.8 457.97 1765.85 456.257 1765.85 454.232C1765.85 452.188 1764.78 450.455 1763.24 449.364L1819.8 351.412C1820.58 351.762 1821.42 351.976 1822.31 351.976C1825.47 351.976 1827.98 349.543 1828.29 346.466H1941.51C1941.82 349.543 1944.33 351.976 1947.48 351.976C1948.36 351.976 1949.2 351.782 1949.96 351.431L2006.44 449.306ZM1762.23 459.761L1818.79 557.714C1817.25 558.824 1816.18 560.518 1816.18 562.582C1816.18 564.626 1817.25 566.339 1818.79 567.468L1762.23 665.421C1761.45 665.071 1760.61 664.837 1759.72 664.837C1756.58 664.837 1754.07 667.271 1753.74 670.347H1640.56C1640.23 667.271 1637.74 664.837 1634.58 664.837C1633.69 664.837 1632.85 665.051 1632.09 665.402L1575.55 567.449C1577.09 566.32 1578.16 564.626 1578.16 562.582C1578.16 560.537 1577.09 558.824 1575.55 557.714L1632.09 459.761C1632.85 460.112 1633.67 460.306 1634.56 460.306C1637.72 460.306 1640.23 457.873 1640.54 454.797H1753.74C1754.05 457.873 1756.56 460.306 1759.72 460.306C1760.65 460.326 1761.47 460.112 1762.23 459.761ZM2391.41 454.232C2391.41 450.864 2388.69 448.138 2385.32 448.138C2384.46 448.138 2383.63 448.313 2382.89 448.644L2326.37 350.73C2327.9 349.621 2328.95 347.907 2328.95 345.863C2328.95 342.514 2326.23 339.788 2322.86 339.788C2319.71 339.788 2317.2 342.203 2316.88 345.279H2203.67C2203.36 342.203 2200.86 339.788 2197.69 339.788C2196.79 339.788 2195.96 340.002 2195.2 340.353L2138.64 242.381C2140.18 241.29 2141.23 239.558 2141.23 237.533C2141.23 234.164 2138.5 231.419 2135.13 231.419C2132 231.419 2129.47 233.853 2129.16 236.929H2015.98C2015.67 233.853 2013.15 231.419 2010.02 231.419C2006.65 231.419 2003.93 234.145 2003.93 237.533C2003.93 239.558 2005 241.29 2006.52 242.381L1949.96 340.353C1949.2 340.022 1948.34 339.788 1947.46 339.788C1944.31 339.788 1941.8 342.203 1941.49 345.279H1828.27C1827.96 342.203 1825.45 339.788 1822.29 339.788C1818.92 339.788 1816.18 342.534 1816.18 345.882C1816.18 347.927 1817.25 349.64 1818.79 350.75L1762.23 448.703C1761.47 448.352 1760.63 448.138 1759.73 448.138C1756.58 448.138 1754.07 450.552 1753.76 453.628H1640.56C1640.25 450.552 1637.74 448.138 1634.58 448.138C1633.69 448.138 1632.85 448.352 1632.09 448.703L1575.53 350.75C1577.07 349.64 1578.12 347.907 1578.12 345.882C1578.12 342.534 1575.38 339.788 1572.03 339.788C1568.87 339.788 1566.36 342.203 1566.03 345.279H1452.85C1452.54 342.203 1450.03 339.788 1446.89 339.788C1443.53 339.788 1440.8 342.514 1440.8 345.863C1440.8 347.907 1441.87 349.64 1443.41 350.75L1386.85 448.703C1386.07 448.352 1385.25 448.138 1384.36 448.138C1381.2 448.138 1378.67 450.572 1378.38 453.648H1265.24C1264.93 450.572 1262.42 448.138 1259.26 448.138C1258.35 448.138 1257.53 448.352 1256.75 448.703L1200.23 350.769C1201.79 349.66 1202.88 347.927 1202.88 345.863C1202.88 343.838 1201.81 342.105 1200.29 341.015L1256.83 243.043C1257.59 243.374 1258.45 243.607 1259.34 243.607C1262.48 243.607 1264.99 241.174 1265.32 238.097H1378.46C1378.77 241.174 1381.28 243.607 1384.43 243.607C1387.8 243.607 1390.53 240.862 1390.53 237.494C1390.53 235.469 1389.48 233.736 1387.94 232.646L1444.48 134.674C1445.26 135.024 1446.08 135.238 1446.99 135.238C1450.34 135.238 1453.09 132.493 1453.09 129.144C1453.09 125.776 1450.34 123.031 1446.99 123.031C1446.08 123.031 1445.26 123.245 1444.48 123.595L1387.94 25.6426C1389.46 24.5328 1390.53 22.8195 1390.53 20.7752C1390.53 17.4069 1387.8 14.6811 1384.43 14.6811C1381.3 14.6811 1378.77 17.0953 1378.46 20.1716H1265.34C1265.03 17.0953 1262.51 14.6811 1259.36 14.6811C1258.45 14.6811 1257.63 14.8952 1256.85 15.2457L1200.29 -82.7265C1201.83 -83.8362 1202.9 -85.5496 1202.9 -87.5939C1202.9 -90.9427 1200.15 -93.688 1196.8 -93.688C1193.65 -93.688 1191.14 -91.2543 1190.83 -88.1975H1077.65C1077.34 -91.2543 1074.83 -93.688 1071.67 -93.688C1068.3 -93.688 1065.56 -90.9427 1065.56 -87.5939C1065.56 -85.5496 1066.63 -83.8557 1068.17 -82.7459L1011.61 15.2262C1010.83 14.8953 1010.01 14.6811 1009.11 14.6811C1005.98 14.6811 1003.47 17.0953 1003.14 20.1716H889.979C889.648 17.0953 887.156 14.6811 884.002 14.6811C883.086 14.6811 882.269 14.8952 881.49 15.2457L824.93 -82.7265C826.468 -83.8362 827.539 -85.5496 827.539 -87.5939C827.539 -90.9427 824.813 -93.688 821.445 -93.688C818.31 -93.688 815.779 -91.2543 815.468 -88.1975H702.309C701.978 -91.2543 699.486 -93.688 696.332 -93.688C692.964 -93.688 690.218 -90.9427 690.218 -87.5939C690.218 -85.5496 691.289 -83.8362 692.827 -82.7265L636.267 15.2457C635.489 14.8952 634.671 14.6811 633.775 14.6811C630.407 14.6811 627.681 17.4069 627.681 20.7752C627.681 24.124 630.407 26.8692 633.775 26.8692C634.69 26.8692 635.508 26.655 636.267 26.3046L692.788 124.179C691.172 125.289 690.024 127.041 690.024 129.144C690.024 132.493 692.769 135.238 696.118 135.238C699.272 135.238 701.803 132.805 702.095 129.709H815.253C815.565 132.785 818.077 135.238 821.231 135.238C822.185 135.238 823.061 134.966 823.879 134.576L880.438 232.529C878.823 233.619 877.693 235.391 877.693 237.494C877.693 240.843 880.438 243.568 883.787 243.568C886.941 243.568 889.472 241.135 889.765 238.058H1003.14C1003.47 241.135 1005.96 243.568 1009.11 243.568C1010.01 243.568 1010.85 243.354 1011.59 243.023L1068.15 340.956C1066.61 342.066 1065.54 343.799 1065.54 345.824C1065.54 347.849 1066.59 349.543 1068.09 350.652L1011.43 448.761C1010.63 448.371 1009.76 448.099 1008.78 448.099C1005.43 448.099 1002.69 450.844 1002.69 454.193C1002.69 457.561 1005.43 460.306 1008.78 460.306C1009.76 460.306 1010.63 460.034 1011.45 459.625L1068.01 557.578C1066.39 558.688 1065.25 560.44 1065.25 562.543C1065.25 565.911 1067.99 568.637 1071.34 568.637C1074.49 568.637 1077.03 566.203 1077.32 563.127H1190.53C1190.85 566.203 1193.36 568.637 1196.51 568.637C1197.45 568.637 1198.32 568.384 1199.12 568.014L1255.66 665.986C1254.06 667.076 1252.95 668.828 1252.95 670.912C1252.95 672.995 1254.06 674.728 1255.64 675.837L1199.1 773.79C1198.3 773.42 1197.45 773.167 1196.49 773.167C1193.36 773.167 1190.83 775.601 1190.52 778.658V779.845C1190.83 782.922 1193.34 785.355 1196.49 785.355C1197.43 785.355 1198.28 785.102 1199.1 784.713L1255.68 882.704C1254.1 883.814 1253.01 885.547 1253.01 887.611C1253.01 889.675 1254.1 891.408 1255.7 892.517L1256.69 893.199C1257.45 893.53 1258.27 893.705 1259.13 893.705C1262.28 893.705 1264.79 891.271 1265.1 888.214H1378.28C1378.61 891.271 1381.11 893.705 1384.28 893.705C1385.19 893.705 1386.07 893.452 1386.85 893.082L1443.43 991.093C1441.89 992.183 1440.82 993.916 1440.82 995.961C1440.82 999.309 1443.54 1002.05 1446.91 1002.05C1450.07 1002.05 1452.58 999.621 1452.89 996.545H1566.05C1566.38 999.621 1568.87 1002.05 1572.03 1002.05C1575.39 1002.05 1578.12 999.309 1578.12 995.961C1578.12 993.936 1577.05 992.203 1575.51 991.093L1632.09 893.121C1632.85 893.452 1633.69 893.666 1634.58 893.666C1637.74 893.666 1640.25 891.252 1640.56 888.195H1753.74C1754.05 891.252 1756.56 893.666 1759.73 893.666C1760.61 893.666 1761.45 893.471 1762.21 893.121L1763.2 892.439C1764.74 891.33 1765.81 889.616 1765.81 887.572C1765.81 885.528 1764.74 883.814 1763.22 882.704L1819.76 784.752C1820.52 785.083 1821.36 785.297 1822.25 785.297C1825.41 785.297 1827.92 782.863 1828.23 779.787V778.599C1827.92 775.523 1825.41 773.109 1822.25 773.109C1821.36 773.109 1820.52 773.323 1819.76 773.673L1763.2 675.701C1764.74 674.591 1765.79 672.878 1765.79 670.853C1765.79 668.809 1764.72 667.115 1763.2 665.986L1819.76 568.033C1820.52 568.364 1821.36 568.578 1822.25 568.578C1825.41 568.578 1827.92 566.145 1828.23 563.068H1941.39C1941.7 566.145 1944.21 568.578 1947.37 568.578C1950.73 568.578 1953.46 565.852 1953.46 562.484C1953.46 560.44 1952.39 558.727 1950.85 557.617L2007.35 459.722C2008.09 460.053 2008.91 460.229 2009.77 460.229C2012.92 460.229 2015.43 457.795 2015.74 454.699H2128.92C2129.23 457.795 2131.74 460.229 2134.9 460.229C2135.87 460.229 2136.77 459.956 2137.57 459.528L2194.17 557.539C2192.59 558.649 2191.48 560.381 2191.48 562.465C2191.48 565.833 2194.2 568.559 2197.55 568.559C2200.71 568.559 2203.24 566.125 2203.53 563.049H2316.73C2317.04 566.125 2319.55 568.559 2322.71 568.559C2326.07 568.559 2328.8 565.833 2328.8 562.465C2328.8 560.459 2327.77 558.765 2326.27 557.656L2382.83 459.684C2383.57 460.015 2384.41 460.209 2385.26 460.209C2388.69 460.326 2391.41 457.6 2391.41 454.232ZM1632.13 882.101L1603.88 833.154L1575.57 784.148C1577.13 783.038 1578.18 781.325 1578.18 779.261C1578.18 777.236 1577.11 775.523 1575.57 774.413L1632.13 676.461C1632.89 676.792 1633.73 677.006 1634.62 677.006C1637.76 677.006 1640.29 674.572 1640.6 671.496H1753.78C1754.09 674.572 1756.6 677.006 1759.75 677.006C1760.67 677.006 1761.51 676.791 1762.27 676.422L1818.83 774.394C1817.29 775.504 1816.22 777.217 1816.22 779.261C1816.22 781.286 1817.29 783.019 1818.81 784.129L1762.27 882.081C1761.51 881.751 1760.69 881.536 1759.79 881.536C1756.64 881.536 1754.13 883.97 1753.8 887.046H1640.62C1640.31 883.97 1637.8 881.536 1634.64 881.536C1633.73 881.536 1632.89 881.75 1632.13 882.101ZM1390.33 670.931C1390.33 668.926 1389.3 667.232 1387.82 666.122L1444.38 568.169C1445.12 568.5 1445.94 568.656 1446.78 568.656C1449.93 568.656 1452.46 566.222 1452.75 563.146H1566.07C1566.38 566.222 1568.89 568.656 1572.07 568.656C1572.96 568.656 1573.8 568.442 1574.58 568.092L1631.12 666.044C1629.56 667.154 1628.49 668.887 1628.49 670.931C1628.49 672.976 1629.56 674.689 1631.1 675.799L1574.56 773.751C1573.78 773.42 1572.96 773.187 1572.07 773.187C1568.91 773.187 1566.4 775.601 1566.07 778.677H1452.85C1452.54 775.601 1450.03 773.187 1446.87 773.187C1445.98 773.187 1445.16 773.401 1444.38 773.751L1387.8 675.74C1389.32 674.611 1390.33 672.937 1390.33 670.931ZM1390.39 887.65C1390.39 885.644 1389.36 883.951 1387.86 882.841L1444.42 784.849C1445.18 785.2 1446.02 785.394 1446.89 785.394C1450.05 785.394 1452.56 782.961 1452.87 779.884H1566.09C1566.4 782.961 1568.91 785.394 1572.08 785.394C1572.98 785.394 1573.8 785.18 1574.58 784.849L1602.83 833.777L1631.14 882.782C1629.6 883.912 1628.53 885.606 1628.53 887.65C1628.53 889.675 1629.6 891.388 1631.14 892.498L1574.58 990.47C1573.8 990.12 1572.98 989.905 1572.07 989.905C1568.91 989.905 1566.4 992.339 1566.09 995.396H1452.93C1452.6 992.339 1450.11 989.905 1446.95 989.905C1446.06 989.905 1445.24 990.12 1444.46 990.47L1387.88 892.459C1389.36 891.33 1390.39 889.636 1390.39 887.65ZM1256.71 676.519C1257.45 676.85 1258.27 677.045 1259.13 677.045C1262.26 677.045 1264.77 674.591 1265.1 671.515H1378.28C1378.59 674.591 1381.11 677.045 1384.26 677.045C1385.19 677.045 1386.07 676.792 1386.87 676.402L1443.47 774.413C1441.91 775.543 1440.86 777.236 1440.86 779.281C1440.86 781.325 1441.91 783.058 1443.47 784.168L1386.91 882.159C1386.13 881.789 1385.27 881.536 1384.36 881.536C1381.2 881.536 1378.69 883.97 1378.36 887.046H1265.18C1264.87 883.97 1262.36 881.536 1259.2 881.536C1258.35 881.536 1257.53 881.731 1256.77 882.062L1200.21 784.07C1201.67 782.961 1202.68 781.267 1202.68 779.281C1202.68 777.275 1201.67 775.581 1200.17 774.472L1256.71 676.519ZM877.927 20.8141C877.927 22.8389 878.998 24.5717 880.536 25.6815L823.918 123.771C823.119 123.362 822.243 123.089 821.289 123.089C818.155 123.089 815.643 125.523 815.312 128.58H702.134C701.803 125.523 699.311 123.089 696.157 123.089C695.319 123.089 694.541 123.264 693.82 123.576L637.299 25.701C638.837 24.5912 639.889 22.8779 639.889 20.8336C639.889 18.7892 638.837 17.0759 637.299 15.9661L693.859 -82.0061C694.638 -81.6556 695.456 -81.422 696.371 -81.422C699.505 -81.422 702.017 -83.8557 702.348 -86.9125H815.507C815.838 -83.8557 818.349 -81.422 821.484 -81.422C822.399 -81.422 823.217 -81.6362 823.976 -82.0061L880.536 15.9661C878.998 17.0564 877.927 18.7697 877.927 20.8141ZM1011.63 26.3435L1068.19 124.296C1066.67 125.425 1065.58 127.119 1065.58 129.164C1065.58 131.208 1066.65 132.902 1068.19 134.012L1011.63 231.964C1010.87 231.614 1010.03 231.419 1009.15 231.419C1006 231.419 1003.49 233.833 1003.18 236.929H889.803C889.472 233.853 886.98 231.439 883.826 231.439C882.989 231.439 882.21 231.614 881.49 231.925L824.911 133.953C826.371 132.824 827.364 131.169 827.364 129.203C827.364 127.217 826.371 125.562 824.911 124.432L881.529 26.363C882.308 26.7134 883.125 26.9276 884.04 26.9276C887.175 26.9276 889.687 24.4939 890.018 21.4371H1003.18C1003.51 24.4939 1006 26.9276 1009.15 26.9276C1010.03 26.9081 1010.85 26.694 1011.63 26.3435ZM1255.86 15.9661C1254.34 17.0564 1253.27 18.7697 1253.27 20.8141C1253.27 22.8195 1254.32 24.5328 1255.84 25.6426L1199.28 123.595C1198.52 123.264 1197.7 123.05 1196.82 123.05C1193.67 123.05 1191.14 125.484 1190.85 128.56H1077.67C1077.36 125.484 1074.84 123.05 1071.69 123.05C1070.79 123.05 1069.96 123.264 1069.2 123.615L1012.64 25.6621C1014.18 24.5328 1015.23 22.8389 1015.23 20.7946C1015.23 18.7503 1014.18 17.0175 1012.62 15.9077L1069.18 -82.045C1069.96 -81.6946 1070.79 -81.4609 1071.69 -81.4609C1074.84 -81.4609 1077.36 -83.8947 1077.67 -86.9514H1190.85C1191.18 -83.8947 1193.67 -81.4609 1196.82 -81.4609C1197.72 -81.4609 1198.56 -81.6556 1199.32 -82.0256L1255.86 15.9661ZM1256.85 231.984L1200.31 134.031C1201.85 132.921 1202.92 131.208 1202.92 129.164C1202.92 127.119 1201.85 125.406 1200.31 124.296L1256.85 26.3435C1257.63 26.694 1258.46 26.9081 1259.36 26.9081C1262.51 26.9081 1265.03 24.4744 1265.34 21.4176H1378.46C1378.77 24.4744 1381.28 26.9081 1384.43 26.9081C1385.35 26.9081 1386.17 26.694 1386.95 26.3435L1443.49 124.316C1441.95 125.425 1440.88 127.119 1440.88 129.183C1440.88 131.227 1441.95 132.941 1443.49 134.031L1386.95 232.003C1386.17 231.653 1385.35 231.439 1384.43 231.439C1381.3 231.439 1378.77 233.853 1378.46 236.949H1265.32C1264.99 233.853 1262.49 231.439 1259.34 231.439C1258.45 231.419 1257.61 231.633 1256.85 231.984ZM1199.3 340.333C1198.52 339.983 1197.7 339.769 1196.78 339.769C1193.65 339.769 1191.12 342.203 1190.81 345.259H1077.63C1077.3 342.203 1074.81 339.769 1071.65 339.769C1070.76 339.769 1069.92 339.983 1069.14 340.333L1012.6 242.4C1014.14 241.29 1015.21 239.577 1015.21 237.513C1015.21 235.488 1014.14 233.756 1012.6 232.665L1069.16 134.693C1069.94 135.044 1070.76 135.258 1071.65 135.258C1074.81 135.258 1077.32 132.824 1077.63 129.748H1190.81C1191.14 132.824 1193.63 135.258 1196.78 135.258C1197.66 135.258 1198.5 135.063 1199.24 134.713L1255.78 232.646C1254.26 233.756 1253.19 235.469 1253.19 237.494C1253.19 239.519 1254.26 241.251 1255.8 242.361L1199.3 340.333ZM1255.78 449.345C1254.24 450.474 1253.19 452.188 1253.19 454.212C1253.19 456.237 1254.24 457.951 1255.78 459.06L1199.18 557.111C1198.38 556.721 1197.52 556.487 1196.57 556.487C1193.44 556.487 1190.94 558.902 1190.59 561.958H1077.36C1077.03 558.902 1074.53 556.487 1071.38 556.487C1070.54 556.487 1069.76 556.663 1069.04 556.955L1012.48 458.983C1013.92 457.873 1014.92 456.198 1014.92 454.232C1014.92 452.265 1013.92 450.591 1012.46 449.481L1069.12 351.353C1069.9 351.723 1070.76 351.957 1071.67 351.957C1074.81 351.957 1077.32 349.543 1077.65 346.466H1190.83C1191.14 349.543 1193.65 351.957 1196.8 351.957C1197.68 351.957 1198.52 351.782 1199.26 351.431L1255.78 449.345ZM1415.14 508.689L1443.41 557.656C1441.81 558.746 1440.7 560.498 1440.7 562.582C1440.7 564.665 1441.81 566.417 1443.39 567.507L1386.85 665.48C1386.05 665.09 1385.19 664.837 1384.24 664.837C1381.11 664.837 1378.59 667.251 1378.26 670.328H1265.1C1264.77 667.251 1262.28 664.837 1259.13 664.837C1258.27 664.837 1257.45 665.032 1256.71 665.343L1200.17 567.371C1201.65 566.261 1202.66 564.587 1202.66 562.582C1202.66 560.596 1201.65 558.921 1200.19 557.792L1256.81 459.761C1257.57 460.112 1258.39 460.326 1259.3 460.326C1262.46 460.326 1264.97 457.892 1265.28 454.816H1378.42C1378.75 457.892 1381.24 460.326 1384.4 460.326C1385.29 460.326 1386.11 460.112 1386.89 459.761L1415.14 508.689ZM1631.12 449.364C1629.58 450.474 1628.51 452.188 1628.51 454.232C1628.51 456.257 1629.58 457.99 1631.12 459.099L1574.58 557.033C1573.82 556.702 1573 556.487 1572.1 556.487C1568.95 556.487 1566.44 558.902 1566.11 561.958H1452.79C1452.46 558.902 1449.97 556.487 1446.82 556.487C1445.98 556.487 1445.16 556.663 1444.44 556.974L1416.21 508.086L1387.92 459.06C1389.44 457.951 1390.53 456.237 1390.53 454.212C1390.53 452.188 1389.46 450.455 1387.92 449.345L1444.48 351.373C1445.24 351.723 1446.08 351.937 1446.97 351.937C1450.13 351.937 1452.64 349.504 1452.93 346.427H1566.11C1566.42 349.504 1568.93 351.937 1572.1 351.937C1573 351.937 1573.84 351.723 1574.62 351.373L1631.12 449.364Z" fill="white"/>
</g>
</g>
</g>
<defs>
<filter id="filter0_dd_305_4033" x="0" y="0" width="804" height="1023" filterUnits="userSpaceOnUse" color-interpolation-filters="sRGB">
<feFlood flood-opacity="0" result="BackgroundImageFix"/>
<feColorMatrix in="SourceAlpha" type="matrix" values="0 0 0 0 0 0 0 0 0 0 0 0 0 0 0 0 0 0 127 0" result="hardAlpha"/>
<feMorphology radius="2" operator="erode" in="SourceAlpha" result="effect1_dropShadow_305_4033"/>
<feOffset dy="4"/>
<feGaussianBlur stdDeviation="3"/>
<feColorMatrix type="matrix" values="0 0 0 0 0.266667 0 0 0 0 0.352941 0 0 0 0 0.509804 0 0 0 0.02 0"/>
<feBlend mode="normal" in2="BackgroundImageFix" result="effect1_dropShadow_305_4033"/>
<feColorMatrix in="SourceAlpha" type="matrix" values="0 0 0 0 0 0 0 0 0 0 0 0 0 0 0 0 0 0 127 0" result="hardAlpha"/>
<feMorphology radius="3" operator="erode" in="SourceAlpha" result="effect2_dropShadow_305_4033"/>
<feOffset dy="10"/>
<feGaussianBlur stdDeviation="7.5"/>
<feColorMatrix type="matrix" values="0 0 0 0 0.266667 0 0 0 0 0.352941 0 0 0 0 0.509804 0 0 0 0.05 0"/>
<feBlend mode="normal" in2="effect1_dropShadow_305_4033" result="effect2_dropShadow_305_4033"/>
<feBlend mode="normal" in="SourceGraphic" in2="effect2_dropShadow_305_4033" result="shape"/>
</filter>
<filter id="filter1_di_305_4033" x="291.339" y="439.611" width="252.836" height="121.939" filterUnits="userSpaceOnUse" color-interpolation-filters="sRGB">
<feFlood flood-opacity="0" result="BackgroundImageFix"/>
<feColorMatrix in="SourceAlpha" type="matrix" values="0 0 0 0 0 0 0 0 0 0 0 0 0 0 0 0 0 0 127 0" result="hardAlpha"/>
<feOffset dy="2"/>
<feComposite in2="hardAlpha" operator="out"/>
<feColorMatrix type="matrix" values="0 0 0 0 0.210749 0 0 0 0 0.0886458 0 0 0 0 0.2875 0 0 0 1 0"/>
<feBlend mode="normal" in2="BackgroundImageFix" result="effect1_dropShadow_305_4033"/>
<feBlend mode="normal" in="SourceGraphic" in2="effect1_dropShadow_305_4033" result="shape"/>
<feColorMatrix in="SourceAlpha" type="matrix" values="0 0 0 0 0 0 0 0 0 0 0 0 0 0 0 0 0 0 127 0" result="hardAlpha"/>
<feOffset dy="1"/>
<feComposite in2="hardAlpha" operator="arithmetic" k2="-1" k3="1"/>
<feColorMatrix type="matrix" values="0 0 0 0 0.419608 0 0 0 0 0.247059 0 0 0 0 0.498039 0 0 0 0.37 0"/>
<feBlend mode="normal" in2="shape" result="effect2_innerShadow_305_4033"/>
</filter>
<linearGradient id="paint0_linear_305_4033" x1="-158.633" y1="511.404" x2="996.038" y2="511.404" gradientUnits="userSpaceOnUse">
<stop stop-color="#46235C"/>
<stop offset="0.1581" stop-color="#48245E"/>
<stop offset="0.3026" stop-color="#4E2766"/>
<stop offset="0.4418" stop-color="#5A2D72"/>
<stop offset="0.577" stop-color="#6C3685"/>
<stop offset="0.6269" stop-color="#743A8E"/>
<stop offset="1" stop-color="#B081B8"/>
</linearGradient>
<clipPath id="clip0_305_4033">
<rect x="12" y="2" width="780" height="999" rx="28" fill="white"/>
</clipPath>
<clipPath id="clip1_305_4033">
<rect width="1159" height="1639.15" fill="white" transform="translate(-178 -260)"/>
</clipPath>
</defs>
</svg>
