<svg width="17" height="18" viewBox="0 0 17 18" fill="none" xmlns="http://www.w3.org/2000/svg">
    <path d="M14.8751 5.98958C14.5847 5.98958 14.3438 5.74875 14.3438 5.45833V3.15625H12.0417C11.7513 3.15625 11.5105 2.91542 11.5105 2.625C11.5105 2.33458 11.7513 2.09375 12.0417 2.09375H14.8751C15.1655 2.09375 15.4063 2.33458 15.4063 2.625V5.45833C15.4063 5.74875 15.1655 5.98958 14.8751 5.98958Z" fill="#718096"/>
    <path d="M10.625 7.40621C10.4904 7.40621 10.3558 7.35665 10.2495 7.2504C10.0441 7.04498 10.0441 6.70494 10.2495 6.49952L14.4995 2.24952C14.7049 2.0441 15.045 2.0441 15.2504 2.24952C15.4558 2.45494 15.4558 2.79498 15.2504 3.0004L11.0004 7.2504C10.8941 7.35665 10.7595 7.40621 10.625 7.40621Z" fill="#718096"/>
    <path d="M4.95833 15.9063H2.125C1.83458 15.9063 1.59375 15.6655 1.59375 15.3751V12.5417C1.59375 12.2513 1.83458 12.0105 2.125 12.0105C2.41542 12.0105 2.65625 12.2513 2.65625 12.5417V14.8438H4.95833C5.24875 14.8438 5.48958 15.0847 5.48958 15.3751C5.48958 15.6655 5.24875 15.9063 4.95833 15.9063Z" fill="#718096"/>
    <path d="M2.12496 15.9062C1.99038 15.9062 1.85577 15.8566 1.74952 15.7504C1.5441 15.545 1.5441 15.2049 1.74952 14.9995L5.99952 10.7495C6.20494 10.5441 6.54498 10.5441 6.7504 10.7495C6.95581 10.9549 6.95581 11.295 6.7504 11.5004L2.5004 15.7504C2.39415 15.8566 2.25954 15.9062 2.12496 15.9062Z" fill="#718096"/>
    <path d="M1.55842 10.948C1.31051 10.948 1.09089 10.7709 1.04131 10.523C0.942144 10.0272 0.885498 9.51008 0.885498 9.00008C0.885498 4.79966 4.29966 1.3855 8.50008 1.3855C9.01716 1.3855 9.53424 1.43506 10.0372 1.54131C10.3276 1.59798 10.5118 1.88131 10.4551 2.16465C10.3984 2.45506 10.108 2.63217 9.83175 2.58258C9.39967 2.49758 8.95342 2.448 8.50717 2.448C4.89467 2.448 1.95509 5.38758 1.95509 9.00008C1.95509 9.43925 1.99759 9.88548 2.08967 10.3105C2.14634 10.6009 1.96215 10.8772 1.67174 10.9338C1.62924 10.948 1.59384 10.948 1.55842 10.948Z" fill="#718096"/>
    <path d="M8.4999 16.6147C7.98282 16.6147 7.46575 16.5651 6.96283 16.4589C6.67242 16.4022 6.48823 16.1189 6.5449 15.8356C6.60156 15.5451 6.89198 15.368 7.16823 15.4176C7.60032 15.5026 8.04656 15.5522 8.49281 15.5522C12.1053 15.5522 15.0449 12.6126 15.0449 9.00012C15.0449 8.56095 15.0024 8.1218 14.9174 7.68972C14.8607 7.3993 15.0449 7.12305 15.3353 7.06638C15.6187 7.00972 15.902 7.19386 15.9587 7.48428C16.0578 7.98011 16.1074 8.49012 16.1074 9.00012C16.1145 13.2005 12.7003 16.6147 8.4999 16.6147Z" fill="#718096"/>
    </svg>
    