<svg width="18" height="18" viewBox="0 0 18 18" fill="none" xmlns="http://www.w3.org/2000/svg">
    <path d="M13.852 8.823H11.9395C10.0553 8.823 9.177 7.94467 9.177 6.0605V4.14799C9.177 2.26383 10.0553 1.3855 11.9395 1.3855H13.852C15.7362 1.3855 16.6145 2.26383 16.6145 4.14799V6.0605C16.6145 7.94467 15.7362 8.823 13.852 8.823ZM11.9395 2.448C10.6362 2.448 10.2395 2.84466 10.2395 4.14799V6.0605C10.2395 7.36384 10.6362 7.7605 11.9395 7.7605H13.852C15.1553 7.7605 15.552 7.36384 15.552 6.0605V4.14799C15.552 2.84466 15.1553 2.448 13.852 2.448H11.9395Z" fill="#718096"/>
    <path d="M6.0605 16.6145H4.148C2.26383 16.6145 1.3855 15.7362 1.3855 13.852V11.9395C1.3855 10.0553 2.26383 9.177 4.148 9.177H6.0605C7.94466 9.177 8.823 10.0553 8.823 11.9395V13.852C8.823 15.7362 7.94466 16.6145 6.0605 16.6145ZM4.148 10.2395C2.84467 10.2395 2.448 10.6362 2.448 11.9395V13.852C2.448 15.1553 2.84467 15.552 4.148 15.552H6.0605C7.36383 15.552 7.7605 15.1553 7.7605 13.852V11.9395C7.7605 10.6362 7.36383 10.2395 6.0605 10.2395H4.148Z" fill="#718096"/>
    <path d="M10.1475 13.3421H8.29171C8.00129 13.3421 7.76046 13.1013 7.76046 12.8109V11.9396C7.76046 10.6363 7.36379 10.2396 6.06046 10.2396H5.18921C4.89879 10.2396 4.65796 9.9988 4.65796 9.70838V7.85255C4.65796 5.64255 5.64254 4.65796 7.85254 4.65796H9.70837C9.99879 4.65796 10.2396 4.89879 10.2396 5.18921V6.06047C10.2396 7.3638 10.6363 7.76046 11.9396 7.76046H12.8109C13.1013 7.76046 13.3421 8.0013 13.3421 8.29171V10.1475C13.3421 12.3575 12.3575 13.3421 10.1475 13.3421ZM8.82296 12.2796H10.1475C11.7625 12.2796 12.2796 11.7625 12.2796 10.1475V8.82296H11.9396C10.0555 8.82296 9.17712 7.94463 9.17712 6.06047V5.72046H7.85254C6.23754 5.72046 5.72046 6.23755 5.72046 7.85255V9.17713H6.06046C7.94462 9.17713 8.82296 10.0555 8.82296 11.9396V12.2796Z" fill="#718096"/>
    </svg>
    