<?xml version="1.0" encoding="UTF-8"?><svg id="Layer_2" xmlns="http://www.w3.org/2000/svg" viewBox="0 0 208.73 99"><defs><style>.cls-1{fill:#b081b8;}</style></defs><g id="Layer_1-2"><g><path class="cls-1" d="M208.73,61.22c-.02,4.02-.68,8.09-2.05,12.07-.21,.61-.44,1.23-.68,1.83-1.55,3.88-3.68,7.37-6.23,10.4-.45,.53-.91,1.05-1.38,1.55-3.3,3.5-7.2,6.3-11.47,8.3-8.39,3.95-18.19,4.83-27.58,1.86L64.75,59.41l4.52-11.08,76.86,30.74,15.01,6c8.52,3.41,17.78,1.97,24.72-3,.61-.44,1.21-.9,1.78-1.4,3.06-2.63,5.56-6.02,7.16-10.03,.24-.61,.46-1.22,.66-1.84,1.32-4.19,1.52-8.51,.74-12.59-1.6-8.39-7.31-15.81-15.83-19.22-8.52-3.41-17.77-1.97-24.72,3.01-2.97,2.13-5.52,4.91-7.41,8.24l-11.21-4.66c1.65-3.2,3.71-6.08,6.08-8.6,10.39-11.01,26.83-15.16,41.73-9.2,14.9,5.96,23.95,20.31,23.88,35.44Z"/><path class="cls-1" d="M133.71,54.16l11.61,4.64c.16-2.71,.75-5.44,1.81-8.09l-11.21-4.48c-1.04,2.61-1.78,5.27-2.22,7.93Z"/><path class="cls-1" d="M13.28,52.45c-1.32,4.19-1.52,8.51-.75,12.59,1.6,8.39,7.31,15.81,15.83,19.22,8.52,3.4,17.77,1.97,24.72-3.01,3.38-2.42,6.22-5.68,8.15-9.63l11.23,4.49c-1.76,3.83-4.09,7.23-6.84,10.15-10.38,11.01-26.83,15.16-41.73,9.2C8.97,89.51-.07,75.16,0,60.03c.02-4.02,.68-8.09,2.05-12.07,.21-.61,.44-1.22,.68-1.83,1.55-3.88,3.67-7.37,6.23-10.4,.45-.53,.91-1.05,1.38-1.55,3.3-3.49,7.2-6.29,11.47-8.3,8.39-3.95,18.19-4.83,27.58-1.86l95.62,38.24-4.57,11.06L63.75,42.64l-16.16-6.46c-8.52-3.41-17.77-1.97-24.72,3.01-.61,.44-1.2,.9-1.78,1.4-3.06,2.63-5.56,6.02-7.16,10.02-.24,.61-.46,1.22-.66,1.84Z"/><polygon class="cls-1" points="89.66 36.89 78.41 32.25 93.37 0 104.39 5.12 89.66 36.89"/></g></g></svg>